<?xml version="1.0" standalone="yes"?>
<svg xmlns="http://www.w3.org/2000/svg" width="1069" height="140">
<path style="fill:#fefcf8; stroke:none;" d="M0 0L0 140L14 140L14 139C10.5146 135.587 11.0003 131.661 11 127C10.9997 123.004 9.65494 115.881 12.0278 112.434C14.5143 108.821 21.2527 110 25 110C28.7804 110 34.5598 108.973 37.6821 111.603C42.7894 115.906 41.0983 134.626 37 139L37 140L50 140C47.6788 134.523 44.8172 116.428 49.6034 111.742C54.3428 107.103 70.7146 110 77 110C86.1604 110 104.786 106.448 112.721 111.318C119.96 115.76 115.804 133.991 113 140L1069 140L1069 0L0 0z"/>
<path style="fill:#ecae5f; stroke:none;" d="M11 13L12 13C12.6775 4.22984 30.7022 2.81023 36.6821 7.74228C39.8234 10.3331 38.9998 15.394 39 19C39.0005 27.1352 43.1445 52.224 34 55C38.3301 56.3767 39.8096 52.9262 39.9807 48.9992C40.4292 38.7076 40 28.3022 40 18C40 14.7321 40.9858 9.27692 38.3966 6.74228C32.1053 0.583618 11.3105 3.46581 11 13M117 86L116 86C108.824 97.7193 103.293 75.8944 96.9853 73.7029C86.0741 69.9121 74.1439 74.9263 63 69.8117C45.7383 61.8893 49 42.7105 49 27C49 22.0121 47.4063 13.5756 50.0278 9.14815C53.628 3.06766 73.747 4.43179 77 10C78.4717 3.00029 53.4547 2.811 49.7423 6.60339C46.9659 9.43956 48 15.4034 48 19C48 30.6403 45.8699 44.714 48.9275 56C55.582 80.5632 79.5841 68.5377 95.9961 74.8935C103.444 77.7776 101.738 86.4208 107.303 89.9715C111.388 92.5778 115.747 89.9667 117 86M87 10L88 10C91.2665 4.40871 110.131 3.19287 113.821 9.22839C115.925 12.6698 115 18.1457 115 22C115 32.8432 117.345 46.2837 112 56C120.148 51.5071 116.001 26.5599 116 18C116 14.6494 116.88 9.3647 114.258 6.74228C109.476 1.96089 88.9845 3.46284 87 10z"/>
<path style="fill:#f48d14; stroke:none;" d="M14.3171 6.74228C9.08539 9.3925 11.9982 21.3524 12 26C12.0024 32.1879 8.63952 49.9886 13.5139 54.142C16.7899 56.9334 23.0238 55.9138 27.0394 55.9745C30.072 56.0204 33.9903 56.2328 36.6821 54.5664C41.1859 51.7782 39 39.6129 39 35C39 29.1863 41.9854 10.7179 36.6821 7.17902C33.2247 4.8719 26.9508 5.99847 23 6C20.3247 6.00104 16.7885 5.49039 14.3171 6.74228M51.3179 7.02779C46.4936 10.247 49 24.8489 49 30C49 49.3952 47.788 69.211 72 72.6998C79.665 73.8043 88.6245 71.1785 95.9961 73.7029C103.044 76.1165 106.119 94.4813 114.485 88.6813C120.638 84.4163 112.836 73.1629 108.907 70.2207C100.746 64.1109 85.6472 68.1761 79.8935 59.8912C74.1059 51.5575 78 30.918 78 21C78 17.0657 79.2169 9.84467 75.4861 7.17902C72.3827 4.96162 66.5977 6 63 6C59.6106 6 54.2871 5.04645 51.3179 7.02779M90.2785 6.74228C85.0096 9.28021 87 20.2742 87 25C87 31.3809 83.9874 48.6267 88.6034 53.4105C91.7962 56.7194 98.8681 55.8362 103.001 55.848C105.84 55.8561 109.274 56.4946 111.852 54.9722C117.335 51.7334 115 39.4055 115 34C115 28.171 117.902 10.8512 112.566 7.17902C109.189 4.85466 102.888 5.9985 99 6C96.2784 6.00105 92.8096 5.5231 90.2785 6.74228z"/>
<path style="fill:#ecae5f; stroke:none;" d="M161 11L162 12L161 11M1020 67C1021.06 61.2967 1019.33 53.3455 1021.6 48.1481C1024.47 41.5861 1036.24 45.8981 1039.27 50.108C1043.23 55.6157 1040.47 63.2796 1047 67C1041.76 57.8198 1043.46 45.1969 1030 44.0934C1027.17 43.8615 1022.12 43.2314 1020.6 46.3179C1018.1 51.4111 1020.07 60.2617 1019 66C1012.88 62.6236 1015 53.1156 1015 47C1015 39.0662 1011.94 23.0578 1016.03 16.1481C1022.99 4.37611 1042.88 16.0612 1047 24C1048.74 11.9977 1025.22 7.58443 1017.22 12.2322C1013.02 14.6747 1014 20.9096 1014 25L1014 56C1014 61.5582 1013.38 66.4722 1020 67M144 25L145 25C147.408 17.7457 152.645 14.2663 160 13C152.473 10.3899 144.787 17.937 144 25z"/>
<path style="fill:#f48d14; stroke:none;" d="M143 58L143 59C151.346 64.5039 160.994 68.407 170.996 64.7523C177.469 62.3871 183.741 55.2289 180.552 48.0008C175.146 35.7507 158.752 39.5198 150.148 31.6065C143.971 25.9249 149.848 19.0075 156 16.6636C163.87 13.6648 170.489 18.22 178 20C170.262 10.1461 142.65 9.2679 144.718 27C146.455 41.895 168.93 37.3215 176.562 47.0941C184.111 56.7594 168.076 64.8916 160 63.5316C154.05 62.5296 148.85 57.6449 143 58z"/>
<path style="fill:#ecae5f; stroke:none;" d="M164 12L164 13L167 13L164 12M938 12L938 13L945 13L938 12z"/>
<path style="fill:#f48d14; stroke:none;" d="M1019 66C1020.39 60.1634 1018.25 52.5272 1020.6 47.1481C1023.84 39.7318 1037.23 45.5843 1040.44 50.044C1044.47 55.6604 1042.16 62.2526 1048 67C1050.32 58.5684 1045.2 51.7003 1043.11 44C1041.35 37.5566 1049.84 31.9614 1047.35 24C1044.32 14.3336 1024.88 6.25922 1016.6 14.6026C1014.02 17.2025 1015 22.6828 1015 26L1015 55C1015 59.5405 1014.01 64.3449 1019 66z"/>
<path style="fill:#ecae5f; stroke:none;" d="M168.667 13.3333L169.333 13.6667L168.667 13.3333M192 65L194.027 46.3171L200 42C189.298 44.6987 192 53.5452 192 63L191 63C189.228 52.014 190.48 41.2866 190.821 30.2855C190.939 26.4783 189.603 20.1441 191.464 16.723C195.818 8.71631 214.597 15.1079 218 21.1736C223.153 30.3583 214.748 33.9094 214.617 42C214.528 47.4514 219.588 57.1381 221 63L219 61L218 61L222 65C221.687 57.7068 216.017 48.3087 216.522 42C217.114 34.6243 223.349 30.4451 220.106 22.0008C217.003 13.9197 197.392 7.81491 190.603 14.6034C187.869 17.3373 189 23.4968 189 27C189 36.4219 185.035 58.1789 192 65M677 13C673.961 24.1706 686.578 43.6027 691 54C692.375 57.2334 693.945 64.1525 697.339 65.8241C700.421 67.3425 701.458 63.0071 702 61L701 61L699 66C689.579 54.3283 679.632 29.766 677 15L683 25L684 25L679 13L677 13M746 13C742.499 27.7059 742.499 52.2941 746 67L749 67L750 24L751 24C754.068 30.1932 758.559 35.412 762.572 41C765.417 44.9628 768.198 48.9889 770.975 53C772.99 55.9091 778.464 66.8307 782.772 66.0787C786.076 65.502 785 58.2637 785 56L785 23C784.995 20.6676 784.89 11.8915 781 16C785.622 16.604 784 24.3357 784 28L784 66L750 23L748 66L747 66C743.613 51.773 743.613 28.227 747 14L780 57L781 52L780 52L780 56C772.207 46.6111 765.482 35.9714 758.424 26C754.94 21.0768 752.088 14.7867 746 13M946 67L946 66C935.048 65.9927 925.1 62.5824 918.702 53C908.535 37.7731 919.474 17.971 936 14C920.523 9.43591 913.192 33.0098 914.093 44C915.453 60.5644 931.657 66.9984 946 67z"/>
<path style="fill:#f48d14; stroke:none;" d="M941 40L941 41L956 42C956 46.5371 957.07 52.6794 955.397 56.9568C951.907 65.8738 937.866 64.6275 931 61.4815C915.111 54.2006 911.857 33.0964 925.093 21.6304C928.804 18.4165 933.161 16.4216 938 15.6335C944.314 14.6051 950.057 17.3784 956 19C946.277 7.69519 927.434 13.6297 919.419 24.0147C910.602 35.4394 914.752 53.3274 926 61.1998C929.765 63.8353 934.414 65.5436 939 65.9066C944.404 66.3344 950.427 65.4042 954.852 62.0309C958.61 59.1656 960.517 44.2908 956.397 41.0278C953.139 38.4474 944.969 40 941 40z"/>
<path style="fill:#ecae5f; stroke:none;" d="M946 13L946 14L949 14L946 13M171.667 14.3333L172.333 14.6667L171.667 14.3333z"/>
<path style="fill:#f48d14; stroke:none;" d="M191 63L192 63C192 58.1062 190.373 49.5543 193.179 45.3171C197.063 39.4533 209.959 43.5605 213.775 47.3295C218.323 51.8208 216.143 59.5684 221 63C219.865 56.9067 214.992 47.5706 215.148 42C215.383 33.6164 223.928 28.715 217.467 19.4676C213.962 14.4508 195.077 9.58177 191.345 16.3179C189.541 19.5746 190.726 25.3847 190.635 29C190.363 39.812 187.943 52.4657 191 63z"/>
<path style="fill:#ecae5f; stroke:none;" d="M234 14C230.772 27.5593 230.049 52.6334 234 66L237 66L234 64C234 48.6259 230.406 27.5086 237 14L234 14M274 66L277 66L277 41L276 41L276 65L275 65L276 15C281.356 20.868 285.531 27.702 290.374 33.9954C292.003 36.1121 294.484 40.1629 297.715 38.8241C306.959 34.9922 307.684 18.5797 318 16C315.33 13.3603 312.881 16.5977 311.015 19.0193C306.326 25.1024 300.979 31.918 298 39C290.026 34.9259 285.539 16.2322 277.055 14.9213C272.616 14.2356 274 24.5812 274 27L274 66M332 45L333 45L344 15L346 15L347 18C347.742 13.068 343.027 14.8035 341.468 18.0586C337.52 26.2978 334.057 36.111 332 45M372 14C372 30.2234 368.406 51.4582 373 67L375 67L376 64L373 65L373 15C388.627 22.6362 392.329 47.5748 407 57L409 15L410 15L411 65C405.418 63.2938 402.792 57.6036 399.656 53C393.624 44.144 385.611 27.8807 376 23L376 24C385.54 32.4681 392.457 45.624 399.859 56C401.784 58.6982 405.545 66.756 409.697 66.0787C413.355 65.4819 412 56.525 412 54L412 25C412 20.4595 412.987 15.6551 408 14L407 56C398.729 46.9378 392.115 35.9955 385 26C381.406 20.9504 378.553 15.0197 372 14M428 49L429 49L441 15L443 15L447 25C447.662 21.8014 444.399 11.0452 440.07 16.3372C433.996 23.7631 430.197 39.728 428 49M470 14L469 43L470 43L471 15L472 15C472 20.3167 469.027 40.7246 473.564 43.9136C476.719 46.1312 481.207 39.8049 483.004 37.9992C490.364 30.6016 498.983 23.5412 505 15L474 44L472 14L470 14M519 14L518 44L519 44L519 15L520 15C520 26.9021 516.845 44.4202 523.344 54.9961C532.398 69.7284 552.999 64.8271 557 49L556 49C550.302 64.317 529.924 68.0802 523.009 51C518.572 40.0393 527.155 23.3779 519 14M558 14L557 48L558 48L558 17L560 17C558.969 29.3527 563.806 46.3595 555.581 56.9846C543.334 72.8052 519.89 64.4307 519 45L518 45C518.165 63.4473 540.726 74.7607 554.532 60.6713C564.145 50.8607 562.976 26.4989 560 14L558 14M570 17L571 17L571 15L572 15L572 50L573.603 62.821L598 65L598 66C589.702 66 575.751 68.9048 570 62L569 62C572.023 70.2226 592.771 68.137 600 66L600 64L575.434 61.9722L573 49L572 14L570 17M626 19L627 19L629 15L630 15L632 17C629.494 13.2807 627.084 15.4313 626 19M717 14L699 57L696 53L695 53L699 59L718 15L719 15L702 60C709.237 51.0418 712.887 36.6663 717.201 26C718.905 21.7846 722.918 15.9851 717 14M728 14L728 52C728 56.7412 726.598 63.146 731 66C733.117 49.2499 733.117 30.7501 731 14L730 14L730 65L729 65C729 50.6893 733.508 27.1271 728 14z"/>
<path style="fill:#a2a09e; stroke:none;" d="M729.333 14.6667L729.667 15.3333L729.333 14.6667z"/>
<path style="fill:#f48d14; stroke:none;" d="M747 14C743.243 26.7108 743.243 53.2892 747 66L748 66L750 23C760.708 34.7327 769.664 59.169 784 66C784 50.3606 787.43 29.9853 783 15L782 15L780 57C768.89 44.8273 761.051 22.5523 747 14z"/>
<path style="fill:#ecae5f; stroke:none;" d="M813 17L814 17C819.239 14.9621 821.531 27.1928 823 31C823.734 26.8119 818.169 9.00421 813 17M888 19L889 19L890 15L892 15L895 23C896.185 17.3552 890.39 11.1355 888 19M950.667 14.3333L951.333 14.6667L950.667 14.3333M988 14L984 25L985 25L989 15L993 22C993.829 17.9787 991.788 15.1928 988 14M160 15L160 16L165 16L160 15M173.667 15.3333L174.333 15.6667L173.667 15.3333z"/>
<path style="fill:#f48d14; stroke:none;" d="M276 15C271.735 29.4288 275 48.9445 275 64L276 64L277 22L295 44L315 22L316 64L318 64C318 48.9445 321.265 29.4288 317 15L315 15L302.29 32.9992L296 38.3688L276 15M344 15C337.064 28.16 328.485 48.1829 327 63L328 63C329.577 60.0114 330.546 55.7633 333.278 53.6034C337.223 50.4835 352.773 50.5052 356.725 53.6034C360.087 56.2381 360.796 61.0715 364 64L346 15L344 15M373 15L373 65C376.829 62.5177 376 58.2056 376 54L376 23C385.304 30.1368 392.32 43.363 398.975 53C402.259 57.7566 404.854 63.9673 411 65C411 49.6525 414.347 29.7071 410 15L409 15L407 57L384.427 27L373 15M441 15L424 64C427.724 61.2602 427.508 55.533 431.394 53.0278C443.186 45.4241 454.879 54.9146 460 64L461 64C458.745 48.7311 450.632 28.4107 443 15L441 15z"/>
<path style="fill:#a2a09e; stroke:none;" d="M471 15L472 16L471 15M505 15L506 16L505 15z"/>
<path style="fill:#ecae5f; stroke:none;" d="M506 15C502.013 22.6859 490.968 27.7278 488.661 36C486.55 43.5717 502.359 57.4679 506 64C499.522 58.0797 494.475 44.243 485.961 41.1759C474.442 37.0264 472 58.6043 472 65L473 65C473 61.7329 472.658 58.2052 473.394 55C473.908 52.7625 474.996 50.8057 476.394 49.0008C488.897 32.8622 496.372 60.2224 507 66C508.188 54.3595 491.048 48.6624 489.917 38C488.932 28.7037 507.916 24.5514 506 15z"/>
<path style="fill:#a2a09e; stroke:none;" d="M519 15L520 16L519 15M571 15L572 16L571 15z"/>
<path style="fill:#f48d14; stroke:none;" d="M629 15C620.188 27.9336 614.131 48.8957 610 64C614.07 61.5373 613.889 56.6279 617.418 53.7423C621.413 50.4765 636.703 50.5105 640.775 53.6034C644.348 56.3169 644.419 61.3656 648 64L636.192 30L629 15M677 15L691.281 52L699 66L712.306 35L719 15L718 15L699 59L679 15L677 15M814 15L797 64C800.924 61.6664 800.77 56.4611 804.324 53.6296C808.266 50.4892 823.832 50.4912 827.787 53.6296C831.584 56.6426 829.91 62.5123 835 64C832.067 51.6217 826.584 38.8116 821.857 27C819.947 22.2261 819.374 16.6921 814 15z"/>
<path style="fill:#ecae5f; stroke:none;" d="M835 15L850.583 41L853 66L854 66L855 45L854 45L854 65L853 65L852.147 41L835 15z"/>
<path style="fill:#a2a09e; stroke:none;" d="M836 15L837 16L836 15z"/>
<path style="fill:#ecae5f; stroke:none;" d="M837 15L844 24L837 15M869 15L854 36L853 36L844 25C845.696 28.0458 849.163 35.904 853.236 36.1682C858.225 36.4918 868.779 19.3062 869 15z"/>
<path style="fill:#a2a09e; stroke:none;" d="M870 15L871 16L870 15z"/>
<path style="fill:#ecae5f; stroke:none;" d="M871 15L855 42L856 42C858.79 35.3676 874.195 21.7239 871 15z"/>
<path style="fill:#f48d14; stroke:none;" d="M890 15L872 64C876.117 61.5085 875.888 56.5521 879.418 53.6034C883.27 50.3866 898.835 50.6068 902.775 53.6034C906.208 56.2139 906.807 61.0599 910 64C907.698 48.632 899.308 28.7227 892 15L890 15z"/>
<path style="fill:#ecae5f; stroke:none;" d="M938 15L938 16L944 16L938 15M952.667 15.3333L953.333 15.6667L952.667 15.3333z"/>
<path style="fill:#f48d14; stroke:none;" d="M989 15L976.939 46L972 64C974.269 60.9672 974.631 56.2409 977.51 53.7423C981.261 50.4872 997.792 50.3932 1001.57 53.6034C1004.33 55.9483 1005.4 60.8204 1007 64L1008 64L996.424 30L989 15z"/>
<path style="fill:#ecae5f; stroke:none;" d="M11 16L11 47L12 47L11 16M152 18L152 19L159 17L152 18M165 16L165 17L168 17L165 16M175 16L178 20L173 19L173 20L179 21L175 16M218 24L217 24C218.396 33.9852 203.835 47.6848 194.742 38.3966C191.387 34.9692 191.431 19.7661 196.228 17.6034C202.681 14.694 210.302 18.3562 216 21C203.962 5.81389 182.494 22.6698 193.179 38.6821C195.199 41.7093 199.861 41.0335 203 40.9961C213.171 40.8751 220.3 34.5849 218 24z"/>
<path style="fill:#f48d14; stroke:none;" d="M234 16L234 64L237 64L237 16L234 16M471 16C467.497 27.8513 467.506 52.1588 471 64L472 64C472.001 58.0198 475.767 37.8639 485.961 41.9213C494.888 45.4748 497.933 59.1191 506 64L488.917 37L506 16C496.788 20.296 489.092 30.7969 482.015 37.9992C480.392 39.6507 476.39 45.5368 473.564 43.2485C468.115 38.8356 473.673 22.3699 471 16M519 16C519 27.7089 515.468 45.5623 521.533 55.9853C529.272 69.2847 550.527 69.0425 557.431 54.9992C562.851 43.9749 559.535 28.8892 560 17L558 17C558 27.793 560.437 41.9898 555.811 52C549.439 65.7879 532.608 67.5763 523.993 54.9961C515.875 43.1404 524.09 28.1307 519 16M571 16L570 53L572.318 64.9722L598 66L598 65L574.318 62.821L572 50L571 16M729 16L729 64L730 64C730 50.4737 734.209 28.4141 729 16M835 16L852.147 42L853 64L854 64L855.829 40L872 16L853.236 35.5386L835 16z"/>
<path style="fill:#ecae5f; stroke:none;" d="M931 17L931 18L937 17L931 17M946 16L946 17L949 17L946 16M954 16L956 19L949 17L949 18L957 21L958 20L954 16M1021.32 17.0278C1018.06 19.1996 1019 24.6593 1019 28C1019 31.0013 1018.17 35.8657 1020.18 38.3966C1023 41.954 1035.6 40.5206 1038.9 38.2577C1053.77 28.047 1033.78 8.71236 1021.32 17.0278M168 17L168 18L171 18L168 17z"/>
<path style="fill:#fefcf8; stroke:none;" d="M194.742 18.0278C192.187 20.0948 193.001 25.1275 193 28C192.999 31.0007 192.175 35.8663 194.179 38.3966C197.304 42.3426 209.532 40.1186 212.892 37.4861C227.302 26.1949 205.654 9.19926 194.742 18.0278z"/>
<path style="fill:#ecae5f; stroke:none;" d="M237 17L237 62L238 62C238 49.258 241.91 28.7012 237 17M780 17L780 31L781 31L780 17z"/>
<path style="fill:#fefcf8; stroke:none;" d="M1024.06 17.5725C1018.82 19.2174 1017.9 33.4498 1021.03 37.3966C1023.39 40.3852 1032.85 39.4762 1036 38.2577C1051.99 32.0632 1037.62 13.3181 1024.06 17.5725z"/>
<path style="fill:#ecae5f; stroke:none;" d="M171.667 18.3333L172.333 18.6667L171.667 18.3333M632.333 18.6667L632.667 19.3333L632.333 18.6667M812.333 18.6667L812.667 19.3333L812.333 18.6667M926 21L931 19L926 21M150.667 19.3333L151.333 19.6667L150.667 19.3333M348 19L349 24L350 24L348 19M149 20L150 21L149 20M625.333 20.6667L625.667 21.3333L625.333 20.6667M633 20L633 23L634 23L633 20M811 20L811 23L812 23L811 20M887.333 20.6667L887.667 21.3333L887.333 20.6667M148.333 21.6667L148.667 22.3333L148.333 21.6667M343 24L346 23L353 43L354 43L346 21L343 24M442 21L438 31L439 31L444 23L447 34L448 34L442 21M891 21L886 33L887 33L892 23L893 26L894 26L891 21M925 21L926 22L925 21M989 21L982 39L983 39L989 23L991 23L999 49L980 49L982 40L981 40C976.731 53.4972 990.375 50 1000 50C999.812 41.1766 995.776 26.9132 989 21M216 22L217 23L216 22M277 22L276 32L277 32L279 22L277 22M313 22C318.038 33.8885 315 51.2048 315 64L316 64L316 34C316 29.6064 317.037 24.6172 313 22M569.333 22.6667L569.667 23.3333L569.333 22.6667M624 22L624 25L625 25L624 22M814 24C820.433 25.9646 824.084 42.7958 825 49L806 48L813 28C810.192 31.7525 804.27 42.9204 805.927 47.6821C807.234 51.4411 822.815 51.3572 824.932 48.3966C827.94 44.1897 817.804 20.0583 814 24M886.333 22.6667L886.667 23.3333L886.333 22.6667M922 25L925 22L922 25M147 23L150 32L147 23M279 23L280 24L279 23M312 23L313 24L312 23z"/>
<path style="fill:#fefcf8; stroke:none;" d="M344 23L335 48L355 48L346 23L344 23M442 23C439.935 26.8778 430.657 44.5491 434.643 47.9722C437.964 50.8233 447.81 49 452 49L444 23L442 23z"/>
<path style="fill:#ecae5f; stroke:none;" d="M628 23L622 40L623 40L630 24C631.721 30.2916 639.723 42.1181 636 48L636 49C643.301 47.4355 632.572 27.2223 630 23L628 23M634 23L634 26L635 26L634 23M810 23L809 28L810 28L810 23z"/>
<path style="fill:#fefcf8; stroke:none;" d="M815 23L806 48L825 49C824.326 41.2835 820.755 28.2989 815 23M891 23C886.47 30.2884 882.749 40.4238 882 49C886.19 49 896.036 50.8233 899.356 47.9722C903.348 44.5444 893.972 26.0627 891 23M989 23L980 49L999 49L991 23L989 23z"/>
<path style="fill:#ecae5f; stroke:none;" d="M994.333 23.6667L994.667 24.3333L994.333 23.6667M280 24L281 25L280 24M311.333 24.6667L311.667 25.3333L311.333 24.6667z"/>
<path style="fill:#fefcf8; stroke:none;" d="M629 24L620 48C623.892 48.7226 634.105 51.1311 636.932 47.2577C640.058 42.9747 631.873 27.5558 629 24z"/>
<path style="fill:#ecae5f; stroke:none;" d="M896.333 24.6667L896.667 25.3333L896.333 24.6667M281 25L284 29L281 25M342.333 25.6667L342.667 26.3333L342.333 25.6667M350.333 25.6667L350.667 26.3333L350.333 25.6667M623.333 25.6667L623.667 26.3333L623.333 25.6667M813.333 25.6667L813.667 26.3333L813.333 25.6667M885 25L885 28L886 28L885 25M921 25L922 26L921 25M995 25L995 28L996 28L995 25M310 26L311 27L310 26M448.333 26.6667L448.667 27.3333L448.333 26.6667M635 26L635 29L636 29L635 26M684.333 26.6667L684.667 27.3333L684.333 26.6667M897 26L897 29L898 29L897 26M920.333 26.6667L920.667 27.3333L920.333 26.6667M983.333 26.6667L983.667 27.3333L983.333 26.6667M1048 26L1048 31L1049 31L1048 26M144 27C144.497 31.4637 145.936 33.9951 150 36L144 27M309 27L310 28L309 27M351 27L351 30L352 30L351 27M622 27L622 30L623 30L622 27M894.333 27.6667L894.667 28.3333L894.333 27.6667M308.333 28.6667L308.667 29.3333L308.333 28.6667M341.333 28.6667L341.667 29.3333L341.333 28.6667M449 28L449 31L450 31L449 28M685.333 28.6667L685.667 29.3333L685.333 28.6667M808 28L808 31L809 31L808 28M884.333 28.6667L884.667 29.3333L884.333 28.6667M919.333 28.6667L919.667 29.3333L919.333 28.6667M996 28L997 33L998 33L996 28M284 29L286 32L284 29M636.333 29.6667L636.667 30.3333L636.333 29.6667M895.333 29.6667L895.667 30.3333L895.333 29.6667M898.333 29.6667L898.667 30.3333L898.333 29.6667M982.333 29.6667L982.667 30.3333L982.333 29.6667M307 30L308 31L307 30M340.333 30.6667L340.667 31.3333L340.333 30.6667M352.333 30.6667L352.667 31.3333L352.333 30.6667M621 30L621 33L622 33L621 30M883 30L880 42L881 42L883 30M918.333 30.6667L918.667 31.3333L918.333 30.6667M306 31L305 34L306 31M450 31L450 34L451 34L450 31M637 31L637 34L638 34L637 31M686.333 31.6667L686.667 32.3333L686.333 31.6667M807 31L807 34L808 34L807 31M981 31L981 34L982 34L981 31M150.667 32.3333L151.333 32.6667L150.667 32.3333M277 32L277 40L278 40L277 32M286 32L288 35L286 32M318 32L318 39L319 39L318 32M353 32L353 35L354 35L353 32M375 32L375 41L376 41L375 32M437.333 32.6667L437.667 33.3333L437.333 32.6667M824 32L825 38L826 38L824 32M896 32L896 35L897 35L896 32M899.333 32.6667L899.667 33.3333L899.333 32.6667M152.667 33.3333L153.333 33.6667L152.667 33.3333M339.333 33.6667L339.667 34.3333L339.333 33.6667M620.333 33.6667L620.667 34.3333L620.333 33.6667M687 33L688 38L689 38L687 33M917 33L917 36L918 36L917 33M998 33L998 36L999 36L998 33M1047.33 33.6667L1047.67 34.3333L1047.33 33.6667M154.667 34.3333L155.333 34.6667L154.667 34.3333M304 34L303 37L304 34M436 34L436 37L437 37L436 34M451.333 34.6667L451.667 35.3333L451.333 34.6667M638 34L638 37L639 37L638 34M806 34L806 37L807 37L806 34M885.333 34.6667L885.667 35.3333L885.333 34.6667M900 34L900 37L901 37L900 34M980 34L980 37L981 37L980 34M157.667 35.3333L158.333 35.6667L157.667 35.3333M288 35L289 36L288 35M338 35L338 38L339 38L338 35M448.333 35.6667L448.667 36.3333L448.333 35.6667M780 35L780 41L781 41L780 35M897.333 35.6667L897.667 36.3333L897.333 35.6667M1046.33 35.6667L1046.67 36.3333L1046.33 35.6667M150.667 36.3333L151.333 36.6667L150.667 36.3333M160 36L160 37L163 37L160 36M289 36L290 37L289 36M354.333 36.6667L354.667 37.3333L354.333 36.6667M619.333 36.6667L619.667 37.3333L619.333 36.6667M884 36L884 39L885 39L884 36M916 36L917 46L918 46L916 36M999 36L999 39L1000 39L999 36M152.667 37.3333L153.333 37.6667L152.667 37.3333M164 37L164 38L167 38L164 37M302 37L301 40L302 37M435 37L434 42L435 42L435 37M449 37L449 40L450 40L449 37M452 37L453 42L454 42L452 37M639.333 37.6667L639.667 38.3333L639.333 37.6667M805 37L805 40L806 40L805 37M901 37L901 40L902 40L901 37M979 37L979 40L980 40L979 37M1045 37L1046 38L1045 37M154 38L154 39L162 40L154 38M168 38L168 39L173 40L173 39L168 38M290 38L291 39L290 38M337 38L336 43L337 43L337 38M355.333 38.6667L355.667 39.3333L355.333 38.6667M618 38L614 52L615 52L618 38M689.333 38.6667L689.667 39.3333L689.333 38.6667M826.333 38.6667L826.667 39.3333L826.333 38.6667M898.333 38.6667L898.667 39.3333L898.333 38.6667M1044 38L1045 39L1044 38M291 39L292 40L291 39M883 39C882.197 41.4735 879.85 45.8736 881.363 48.3966C884.378 53.4201 901.038 50.7628 902 45L901 45C897.623 51.1246 888.127 49 882 49L883 39M939 40L939 41C943.119 42.7352 948.086 41.5408 951.852 43.4074C958.075 46.492 954.383 56.6673 952 61C958.125 57.6228 956 48.1268 956 42L940 41L940 40L956.397 41.6034L958 60C959.556 56.2918 960.948 42.8402 957.397 40.0278C953.733 37.1262 943.122 38.7817 939 40M1000 39L1000 42L1001 42L1000 39M1043 39L1044 40L1043 39M162 40L162 41L169 42L162 40M173.667 40.3333L174.333 40.6667L173.667 40.3333M292 40L294 43L292 40M300 40L301 41L300 40M450.333 40.6667L450.667 41.3333L450.333 40.6667M640.333 40.6667L640.667 41.3333L640.333 40.6667M690 40L690 43L691 43L690 40M804.333 40.6667L804.667 41.3333L804.333 40.6667M827 40L827 43L828 43L827 40M899.333 40.6667L899.667 41.3333L899.333 40.6667M902 40L903 45L904 45L902 40z"/>
<path style="fill:#a2a09e; stroke:none;" d="M940 40L941 41L940 40z"/>
<path style="fill:#ecae5f; stroke:none;" d="M978.333 40.6667L978.667 41.3333L978.333 40.6667M1042 40L1041 43L1042 40M175 41L181 47L175 41M299 41L295 44L295 45L299 41M356 41L357 46L358 46L356 41M621 41L621 44L622 44L621 41M169 42L169 43L172 43L169 42M433 42L433 45L434 45L433 42M451 42L451 45L452 45L451 42M454 42L455 47L456 47L454 42M641.333 42.6667L641.667 43.3333L641.333 42.6667M803 42L803 45L804 45L803 42M879.333 42.6667L879.667 43.3333L879.333 42.6667M977 42L976 48L977 48L977 42M1001 42L1001 45L1002 45L1001 42M172 43L173 44L172 43M201 43L201 44L209 44L201 43M294 43L295 44L294 43M335 43L335 47L336 47L335 43M691 43L692 48L693 48L691 43M828 43L828 46L829 46L828 43M900.333 43.6667L900.667 44.3333L900.333 43.6667M1042 43L1043 44L1042 43M173.667 44.3333L174.333 44.6667L173.667 44.3333M209.667 44.3333L210.333 44.6667L209.667 44.3333M354 44L354 47L355 47L354 44M620 44L620 47L621 47L620 44M878 44L878 47L879 47L878 44M1043 44L1045 47L1043 44M175 45L176 46L175 45M211 45L212 46L211 45M432 45C433.308 52.8355 445.843 50 452 50L452 49C444.924 49 437.165 50.6384 432 45M452 45L452 49L453 49L452 45M642.333 45.6667L642.667 46.3333L642.333 45.6667M780 45L780 48L781 48L780 45M802.333 45.6667L802.667 46.3333L802.333 45.6667M904 45L904 48L905 48L904 45M1002.33 45.6667L1002.67 46.3333L1002.33 45.6667M176 46L177 47L176 46M212.667 46.3333L213.333 46.6667L212.667 46.3333M331.333 46.6667L331.667 47.3333L331.333 46.6667M358 46L361 57L362 57L358 46M829.333 46.6667L829.667 47.3333L829.333 46.6667M177 47L178 54L179 54L177 47M181 47L181 51L182 51L181 47M214 47L215 48L214 47M355 47L356 48L355 47M456 47L456 50L457 50L456 47M643 47L643 50L644 50L643 47M801 47L801 50L802 50L801 47M877.333 47.6667L877.667 48.3333L877.333 47.6667M918.333 47.6667L918.667 48.3333L918.333 47.6667M1003.33 47.6667L1003.67 48.3333L1003.33 47.6667M1045.33 47.6667L1045.67 48.3333L1045.33 47.6667M215.333 48.6667L215.667 49.3333L215.333 48.6667M330 48L330 51L331 51L330 48M335 48C338.06 51.5024 351.94 51.5024 355 48L335 48M469 48L469 53L470 53L469 48M569 48L569 56L570 56L569 48M620 48L620 49L623 49L620 48M693.333 48.6667L693.667 49.3333L693.333 48.6667M905.333 48.6667L905.667 49.3333L905.333 48.6667M975.333 48.6667L975.667 49.3333L975.333 48.6667M624 49L624 50L628 50L624 49M629 49L630 50L629 49M632 49L633 50L632 49M780.333 49.6667L780.667 50.3333L780.333 49.6667M830 49L831 54L832 54L830 49M876 49L876 52L877 52L876 49M919.333 49.6667L919.667 50.3333L919.333 49.6667M1046.33 49.6667L1046.67 50.3333L1046.33 49.6667M216 50L216 53L217 53L216 50M427.333 50.6667L427.667 51.3333L427.333 50.6667M457 50L457 53L458 53L457 50M644 50L644 53L645 53L644 50M694.333 50.6667L694.667 51.3333L694.333 50.6667M800.333 50.6667L800.667 51.3333L800.333 50.6667M906 50L906 53L907 53L906 50M974.333 50.6667L974.667 51.3333L974.333 50.6667M1004.33 50.6667L1004.67 51.3333L1004.33 50.6667M11 51C11.5765 54.4745 12.5255 55.4235 16 56L16 55L11 51M329 51L329 54L330 54L329 51M920.333 51.6667L920.667 52.3333L920.333 51.6667M318 52L318 56L319 56L318 52M331 57L332 57C337.166 50.7975 352.834 50.7975 358 57C359.563 49.5684 333.328 49.3299 331 57M426 52L426 55L427 55L426 52M430 54L454 53C449.227 50.9971 433.527 49.9636 430 54M613 52L612 57L613 57L613 52M618 52L618 53L641 53L618 52M805 52L805 53L827 53L805 52M875 52L874 58L875 58L875 52M878 55L903 53C897.701 50.7766 881.325 49.8717 878 55M978 52L978 53L1003 55C999.243 49.205 984.366 52 978 52M1005 52L1005 55L1006 55L1005 52M1047 52L1047 57L1048 57L1047 52M87 53L94 56L94 55L87 53M181 53L181 57L182 57L181 53M217 53L217 60L218 60L217 53M454 53L455 54L454 53M458.333 53.6667L458.667 54.3333L458.333 53.6667M470.333 53.6667L470.667 54.3333L470.333 53.6667M616 53L616 55L618 53L616 53M641 53L642 54L641 53M645 53L645 56L646 56L645 53M799.333 53.6667L799.667 54.3333L799.333 53.6667M803 53L803 55L805 53L803 53M827 53L829 58L830 58L827 53M903 53L904 54L903 53M921 53L921 55L923 55L921 53M973 53L973 56L974 56L973 53M976 53L976 56L977 56L978 53L976 53M177 54L177 57L178 57L177 54M328 54L328 57L329 57L328 54M429.333 54.6667L429.667 55.3333L429.333 54.6667M455 54L456 59L457 59L455 54M642.333 54.6667L642.667 55.3333L642.333 54.6667M832 54L832 57L833 57L832 54M904.333 54.6667L904.667 55.3333L904.333 54.6667M907.333 54.6667L907.667 55.3333L907.333 54.6667M22 55L23 56L22 55M95 55L96 56L95 55M102.667 55.3333L103.333 55.6667L102.667 55.3333M425 55L425 58L426 58L425 55M459 55L459 58L460 58L459 55M615 55L612 65L610 63L609 63L610 66C613.975 63.8671 616.554 59.4819 615 55M798 55L798 58L799 58L798 55M802.333 55.6667L802.667 56.3333L802.333 55.6667M877 55L877 58L878 58L877 55M923 55L927 59L923 55M1003 55L1003 58L1004 58L1003 55M1006 55L1006 58L1007 58L1006 55M78 56L79 60L80 60L78 56M142 59L146 57L142 59M428 56L428 59L429 59L428 56M643 56L643 59L644 59L643 56M646 56L646 64L646 65L648 66L646 56M905 56L905 59L906 59L905 56M908.333 56.6667L908.667 57.3333L908.333 56.6667M972.333 56.6667L972.667 57.3333L972.333 56.6667M975 56L975 59L976 59L975 56M146 57L147 58L146 57M176 57L177 58L176 57M180 57L177 62L180 57M327.333 57.6667L327.667 58.3333L327.333 57.6667M330.333 57.6667L330.667 58.3333L330.333 57.6667M359 57L363 64L359 57M362 57L362 60L363 60L362 57M801.333 57.6667L801.667 58.3333L801.333 57.6667M833.333 57.6667L833.667 58.3333L833.333 57.6667M147.667 58.3333L148.333 58.6667L147.667 58.3333M175 58L176 59L175 58M424 58L424 61L425 61L424 58M460 58L460 61L461 61L460 58M611.333 58.6667L611.667 59.3333L611.333 58.6667M797 58L797 61L798 61L797 58M830 58L830 61L831 61L830 58M873 58L872 63L873 63L873 58M876.333 58.6667L876.667 59.3333L876.333 58.6667M1007 58L1008 65L1007 65L1007 63L1006 63L1009 66L1007 58M143 59L144 60L143 59M149 59L149 60L155 62L155 61L149 59M172 61L175 59L172 61M326 59L326 65L329 62L326 59M427.333 59.6667L427.667 60.3333L427.333 59.6667M457.333 59.6667L457.667 60.3333L457.333 59.6667M644 59L645 64L646 64L644 59M800 59L800 62L801 62L800 59M906 59L906 62L907 62L906 59M909.333 59.6667L909.667 60.3333L909.333 59.6667M927 59L927 60L933 62L933 61L927 59M971 59L971 62L972 62L971 59M974.333 59.6667L974.667 60.3333L974.333 59.6667M1004 59L1005 63L1006 63L1004 59M1048.33 59.6667L1048.67 60.3333L1048.33 59.6667M80 60L87 64L87 63L80 60M144 60L147 62L144 60M329.333 60.6667L329.667 61.3333L329.333 60.6667M363 60L363 63L364 63L363 60M610.333 60.6667L610.667 61.3333L610.333 60.6667M834.333 60.6667L834.667 61.3333L834.333 60.6667M875 60L875 63L876 63L875 60M957 60L956 62L958 62L957 60M98 100L97 100C90.5682 107.722 71.3867 104.004 62 104C58.0548 103.998 52.4413 104.719 50.0278 100.772C44.8955 92.3775 53.5209 80.0487 43.787 72.8927C38.0599 68.6824 28.6167 71.0448 22 70.9992C19.2397 70.9802 14.3989 71.2757 13.3457 67.8704C12.3445 64.6333 16.541 62.8062 19.0008 62.3588C23.9615 61.4565 37.5406 61.18 41.9961 63.3218C49.972 67.1558 52.82 75.7833 62 78.8958C72.6931 82.5214 88.8978 77.811 97 87C98.3794 81.1289 85.007 80.2166 81 80.0394C73.0844 79.6892 65.0972 79.7572 58 75.6366C46.4508 68.9311 45.6516 60.8996 31 61.625C25.6421 61.8903 13.164 58.0296 11.4923 66.0394C9.41047 76.0141 36.6494 70.2614 41.9568 73.7423C53.1986 81.1153 43.0607 93.8965 49.0278 102.566C51.3901 105.999 57.4346 105 61 105C69.235 105.001 95.2033 109.213 98 100M159 63L159 64L172 62L159 63M423 61C423.05 63.3375 423.861 67.8082 426 64L423 61M426.333 61.6667L426.667 62.3333L426.333 61.6667M458 61L461 65L458 61M461 61L461 64L462 64L461 61M796 61L797 66L799 66L800 62L799 62L798 65L797 65L796 61M831.333 61.6667L831.667 62.3333L831.333 61.6667M933 62L933 63L952 62L933 62M1049 61L1049 66L1050 66L1049 61z"/>
<path style="fill:#f48d14; stroke:none;" d="M17.0193 62.5725C13.8561 63.5161 10.5062 67.3705 14.3225 69.9722C22.4526 75.5147 35.5769 66.6487 43.787 73.5725C53.1611 81.4779 44.3648 93.3384 50.0278 101.566C52.2545 104.802 57.6265 103.999 61 104C70.1963 104.004 85.3798 106.93 93.8912 103.397C99.7303 100.973 99.8066 87.3961 94.7716 84.1644C86.1785 78.6489 73.5061 82.0264 64 79.2153C54.3486 76.3612 51.6825 68.686 43.9599 63.858C39.2189 60.8941 22.4315 60.9582 17.0193 62.5725z"/>
<path style="fill:#ecae5f; stroke:none;" d="M147 62L147 63L151 64L151 63L147 62M155 62L155 63L159 63L155 62M176 62L177 63L176 62M835 62L832 64L832 65L835 66L835 62M907 62C908.278 64.8984 910.25 65.4831 911 62L910 62L907 62M954.667 62.3333L955.333 62.6667L954.667 62.3333M970 62L973 65L970 62M973.333 62.6667L973.667 63.3333L973.333 62.6667M174.667 63.3333L175.333 63.6667L174.667 63.3333M470.333 63.6667L470.667 64.3333L470.333 63.6667M871 63L872 66L874 66L875 63L874 63L871 63M952.667 63.3333L953.333 63.6667L952.667 63.3333M87 64L87 65L97 65L87 64M151.667 64.3333L152.333 64.6667L151.667 64.3333M169 65L169 66L174 65L169 65z"/>
<path style="fill:#a2a09e; stroke:none;" d="M275 64L276 65L275 64z"/>
<path style="fill:#ecae5f; stroke:none;" d="M316 64L316 66L318 66L318 64L316 64z"/>
<path style="fill:#a2a09e; stroke:none;" d="M362.667 64.3333L363.333 64.6667L362.667 64.3333M424 64L425 65L424 64M471 64L472 65L471 64M506 64L507 65L506 64M610.667 64.3333L611.333 64.6667L610.667 64.3333M647 64L648 65L647 64M729 64L730 65L729 64M797 64L798 65L797 64M834 64L835 65L834 64M853 64L854 65L853 64M872.667 64.3333L873.333 64.6667L872.667 64.3333z"/>
<path style="fill:#ecae5f; stroke:none;" d="M950.667 64.3333L951.333 64.6667L950.667 64.3333z"/>
<path style="fill:#a2a09e; stroke:none;" d="M971 64L972 65L971 64M1007 64L1008 65L1007 64z"/>
<path style="fill:#ecae5f; stroke:none;" d="M98 65L98 66L101 66L98 65M153 65L153 66L156 66L153 65z"/>
<path style="fill:#a2a09e; stroke:none;" d="M235 65L236 66L235 65z"/>
<path style="fill:#ecae5f; stroke:none;" d="M947.667 65.3333L948.333 65.6667L947.667 65.3333M102.667 66.3333L103.333 66.6667L102.667 66.3333M156 66L156 67L169 67L156 66M1048 66L1049 67L1048 66M104.667 67.3333L105.333 67.6667L104.667 67.3333M106.667 68.3333L107.333 68.6667L106.667 68.3333M108 69L112 72L108 69M112 72L114 75L112 72M114.333 75.6667L114.667 76.3333L114.333 75.6667M115 77L115 80L116 80L115 77M14 79L14 80L36 80L14 79M12 80L11 88L12 88L12 80z"/>
<path style="fill:#f48d14; stroke:none;" d="M13.6026 81.0278C11.3564 82.7935 11.5165 87.4238 11.3086 90C10.3084 102.394 16.3429 103.004 27 103C30.1687 102.999 34.8998 103.702 37.3966 101.258C39.6557 99.0462 38.9989 94.8533 39 92C39.0012 88.8999 39.8217 84.0285 37.3966 81.6034C34.4074 78.6142 16.9155 78.4235 13.6026 81.0278z"/>
<path style="fill:#ecae5f; stroke:none;" d="M37 80C39.1732 85.1288 41.8077 98.2946 35.8519 101.821C30.4926 104.994 20.0669 103 14 103L14 104C20.1735 104 32.4072 106.341 37.6821 102.821C42.3638 99.6969 41.265 82.765 37 80M116 80L116 83L117 83L116 80z"/>
<path style="fill:#a2a09e; stroke:none;" d="M500 87L500 88L504 88L500 87M613 86L613 87L618 87L613 86z"/>
<path style="fill:#ecae5f; stroke:none;" d="M817 86L818 87L817 86z"/>
<path style="fill:#a2a09e; stroke:none;" d="M144 88L144 90L147 93L148 93L148 88L144 88z"/>
<path style="fill:#545454; stroke:none;" d="M145 88C150.329 99.1003 149.989 117.851 145 129L155 129C149.884 120.328 146.588 96.7062 155 89L145 88z"/>
<path style="fill:#a2a09e; stroke:none;" d="M152 87L152 88L155 88L152 87M431 87L432 88L431 87z"/>
<path style="fill:#545454; stroke:none;" d="M461 129C457.746 123.98 450.496 127.311 446.411 122.606C442.449 118.041 448.555 102.636 454.956 102.636C460.22 102.635 458.223 107.897 456 110L456 112L457 113C463.088 110.724 465.34 102.39 457.981 99.6042C447.157 95.5061 443.695 110.672 442 118L440 118L433 105C436.705 103.071 440.323 100.518 440.833 96C441.503 90.0513 435.54 85.6022 430.055 88.3326C422.525 92.0802 428.178 98.2651 426.461 103.91C424.929 108.953 419.578 111.113 419.123 117C417.708 135.349 434.406 126.077 443 126.373C448.914 126.578 454.674 129 461 129z"/>
<path style="fill:#a2a09e; stroke:none;" d="M435.667 87.3333L436.333 87.6667L435.667 87.3333M494 87L495 88L494 87z"/>
<path style="fill:#545454; stroke:none;" d="M493 88L493 89C504.083 90.7306 502.304 120.653 497 128L506 129L504 96L505 96L513.45 120L518.167 127.079L523.6 120L532 96L533 96L531 129L539 129C535.082 116.443 536.036 100.611 539 88C526.597 88.4036 522.282 112.914 519 123C511.709 111.259 511.255 83.7567 493 88z"/>
<path style="fill:#a2a09e; stroke:none;" d="M534 87L535 88L534 87M611 87L612 88L611 87z"/>
<path style="fill:#545454; stroke:none;" d="M610 101C607.218 99.4478 604.52 97.8393 601.286 97.4838C574.067 94.4917 591.342 145.258 609.57 124.775C617.996 115.308 605.804 92.6365 619 88C609.633 84.1127 610 94.7746 610 101z"/>
<path style="fill:#a2a09e; stroke:none;" d="M616 88L616 89L621 89L616 88M669 87L670 88L669 87z"/>
<path style="fill:#545454; stroke:none;" d="M668 88L668 89C678.394 92.0154 675.188 120.68 672 129L679 129C675.988 119.346 682.526 84.8837 668 88z"/>
<path style="fill:#a2a09e; stroke:none;" d="M674 87L675 88L674 87M786 88L786 90L789 91L789 90L787 88L795 88L793 90L793 91L796 90L796 88L786 88z"/>
<path style="fill:#545454; stroke:none;" d="M812 87L814 90L814 91L793 109L795 88L787 88C791.097 98.6936 791.097 118.306 787 129L795 129C793.968 126.306 793.107 123.923 793.019 120.996C792.329 97.9108 817.29 116.736 813 128C816.483 129.273 822.035 130.505 823 126C817.863 124.545 804.103 108.731 806.113 103.015C808.51 96.1988 818.394 93.1452 822 87L812 87z"/>
<path style="fill:#a2a09e; stroke:none;" d="M920 87L920 88L925 88L920 87M155.333 88.6667L155.667 89.3333L155.333 88.6667M438 88L439 89L438 88M492 88L493 89L492 88M532 88L533 89L532 88M539 88L539 91L540 91L539 88z"/>
<path style="fill:#ecae5f; stroke:none;" d="M610 88L611 89L610 88z"/>
<path style="fill:#a2a09e; stroke:none;" d="M667 88L672 90L672 89L667 88M822 88L823 89L822 88M917 89L917 90L922 90L917 89z"/>
<path style="fill:#545454; stroke:none;" d="M919 88L919 89C929.719 92.8551 925.772 120.116 923 129L930 129C928.687 125.574 928.025 122.702 928.001 119C927.978 115.501 927.474 111.415 928.434 108.015C930.346 101.24 939.848 99.197 943.911 105.214C947.903 111.126 946.34 122.173 943 128L951 128C944.355 118.797 953.548 95.2461 934.005 99.3889C931.783 99.8598 929.954 100.905 928 102C927.403 94.435 927.879 88.1058 919 88z"/>
<path style="fill:#ecae5f; stroke:none;" d="M926 88L927 89L926 88M307 89L308 90L307 89z"/>
<path style="fill:#a2a09e; stroke:none;" d="M427 89L428 90L427 89M439 89L440 90L439 89M497 89L498 90L497 89M505 89L506 90L505 89M531 89L532 90L531 89M610 89L611 90L610 89M614 89L615 90L614 89M676 89L677 90L676 89M812 89L813 90L812 89M821 89L822 90L821 89z"/>
<path style="fill:#ecae5f; stroke:none;" d="M837 89L838 90L837 89z"/>
<path style="fill:#a2a09e; stroke:none;" d="M926 89L927 90L926 89z"/>
<path style="fill:#ecae5f; stroke:none;" d="M11.3333 90.6667L11.6667 91.3333L11.3333 90.6667z"/>
<path style="fill:#a2a09e; stroke:none;" d="M152 90L152 91L155 91L152 90M305 90L304 92L305 90z"/>
<path style="fill:#545454; stroke:none;" d="M306.342 91.1713C303.486 92.6305 305.82 96.5698 308.591 95.3387C311.558 94.0208 309.126 89.7483 306.342 91.1713z"/>
<path style="fill:#a2a09e; stroke:none;" d="M309 90L310 91L309 90z"/>
<path style="fill:#ecae5f; stroke:none;" d="M426 90L427 91L426 90z"/>
<path style="fill:#a2a09e; stroke:none;" d="M429 93L438 93C434.856 89.8043 432.144 89.8043 429 93M440 90L441 91L440 90z"/>
<path style="fill:#ecae5f; stroke:none;" d="M498 90L499 91L498 90z"/>
<path style="fill:#a2a09e; stroke:none;" d="M530.333 90.6667L530.667 91.3333L530.333 90.6667M613 90L613 93L614 93L613 90M672 90L673 91L672 90M813 90L814 91L813 90M818 90L819 91L818 90M835 90L834 92L835 90z"/>
<path style="fill:#545454; stroke:none;" d="M836.318 91.0818C833.134 93.094 836.653 97.1718 839.368 94.9576C841.788 92.9841 838.89 89.4561 836.318 91.0818z"/>
<path style="fill:#ecae5f; stroke:none;" d="M840 90L841 91L840 90z"/>
<path style="fill:#a2a09e; stroke:none;" d="M923 90L924 91L923 90M927 90L927 98L928 98L927 90z"/>
<path style="fill:#ecae5f; stroke:none;" d="M98.3333 91.6667L98.6667 92.3333L98.3333 91.6667z"/>
<path style="fill:#a2a09e; stroke:none;" d="M151 91L151 126L152 126L151 91M213 91L212 98L207 98L207 99C211.89 98.619 212.845 96.724 213 92L215 94L216 94L215 91L213 91M310 91L311 92L310 91z"/>
<path style="fill:#fefcf8; stroke:none;" d="M431 102C445.564 95.0402 425.628 85.0118 431 102z"/>
<path style="fill:#a2a09e; stroke:none;" d="M499 91L499 96L500 96L499 91M506.333 91.6667L506.667 92.3333L506.333 91.6667M537 91L538 92L537 91M673 91L674 92L673 91M677 91L677 126L678 126L677 91M812 91L813 92L812 91M817 91L818 92L817 91M840 91L841 92L840 91z"/>
<path style="fill:#ecae5f; stroke:none;" d="M859 91L860 92L859 91z"/>
<path style="fill:#a2a09e; stroke:none;" d="M860 91L862 93L860 91z"/>
<path style="fill:#ecae5f; stroke:none;" d="M923 91L924 92L923 91z"/>
<path style="fill:#545454; stroke:none;" d="M213 92C212.665 96.3943 211.444 98.2912 207 99L207 101C220.058 103.082 205.473 132.123 221 128L221 127C211.549 124.156 215.905 108.67 216 101L224 101L224 99L216 99L213 92z"/>
<path style="fill:#a2a09e; stroke:none;" d="M425.333 92.6667L425.667 93.3333L425.333 92.6667M441 92L441 98L442 98L441 92z"/>
<path style="fill:#ecae5f; stroke:none;" d="M537 92L538 93L537 92z"/>
<path style="fill:#a2a09e; stroke:none;" d="M609.333 92.6667L609.667 93.3333L609.333 92.6667M811 92L812 93L811 92M816 92L817 93L816 92z"/>
<path style="fill:#545454; stroke:none;" d="M859 92L859 99L853 99L853 101L859 101C859 108.685 855.046 131.418 868 128L868 127C858.411 125.471 862 108.449 862 101L870 101L870 99L862 99L861 92L859 92z"/>
<path style="fill:#a2a09e; stroke:none;" d="M924 92L924 126L925 126L924 92z"/>
<path style="fill:#ecae5f; stroke:none;" d="M10 93L10 98L11 98L10 93z"/>
<path style="fill:#a2a09e; stroke:none;" d="M507 93L507 96L508 96L507 93M529.333 93.6667L529.667 94.3333L529.333 93.6667M810 93L811 94L810 93M815 93L816 94L815 93M304.333 94.6667L304.667 95.3333L304.333 94.6667M310 94L311 95L310 94z"/>
<path style="fill:#ecae5f; stroke:none;" d="M609 94L610 95L609 94M613 94L614 95L613 94M808 94L809 95L808 94M814 94L815 95L814 94z"/>
<path style="fill:#a2a09e; stroke:none;" d="M834 94L835 95L834 94M858 94L859 95L858 94z"/>
<path style="fill:#ecae5f; stroke:none;" d="M110.108 95.8904C105.055 97.2233 106.947 105.048 111.96 104.118C117.458 103.098 115.457 94.4795 110.108 95.8904z"/>
<path style="fill:#a2a09e; stroke:none;" d="M215 95L216 96L215 95M609 95L608 101L609 95M613 95L614 96L613 95z"/>
<path style="fill:#ecae5f; stroke:none;" d="M807 95L808 96L807 95z"/>
<path style="fill:#a2a09e; stroke:none;" d="M840 95L841 96L840 95z"/>
<path style="fill:#ecae5f; stroke:none;" d="M858 95L859 96L858 95z"/>
<path style="fill:#f48d14; stroke:none;" d="M110.303 97.1759C107.088 98.7819 109.191 104.572 112.581 102.824C115.758 101.186 113.808 95.4253 110.303 97.1759z"/>
<path style="fill:#a2a09e; stroke:none;" d="M306 96L306 97L309 97L306 96M425 96L425 99L426 99L425 96M437.333 96.6667L437.667 97.3333L437.333 96.6667z"/>
<path style="fill:#ecae5f; stroke:none;" d="M499 96L499 99L500 99L499 96z"/>
<path style="fill:#a2a09e; stroke:none;" d="M504 96L505 97L504 96M508.333 96.6667L508.667 97.3333L508.333 96.6667M528.333 96.6667L528.667 97.3333L528.333 96.6667M532.333 96.6667L532.667 97.3333L532.333 96.6667z"/>
<path style="fill:#ecae5f; stroke:none;" d="M613.333 96.6667L613.667 97.3333L613.333 96.6667M806 96L807 97L806 96z"/>
<path style="fill:#a2a09e; stroke:none;" d="M836 96L836 97L839 97L836 96z"/>
<path style="fill:#ecae5f; stroke:none;" d="M839 96L840 97L839 96M862 96L863 97L862 96z"/>
<path style="fill:#a2a09e; stroke:none;" d="M245.667 97.3333L246.333 97.6667L245.667 97.3333z"/>
<path style="fill:#545454; stroke:none;" d="M258 117C253.608 131.743 235.47 124.81 237.994 111C239.383 103.4 255.281 94.0312 256.534 106.028C257.584 116.079 243.125 110.467 239 109C243.702 117.988 263.014 116.568 259.562 104.043C257.713 97.3328 248.408 96.1843 243.004 98.7685C231.67 104.188 231.35 122.09 243.001 127.347C249.478 130.27 266.8 122.904 258 117z"/>
<path style="fill:#a2a09e; stroke:none;" d="M251.667 97.3333L252.333 97.6667L251.667 97.3333M429 97L430 98L429 97M596.667 97.3333L597.333 97.6667L596.667 97.3333M600 97L601 98L600 97M602.667 97.3333L603.333 97.6667L602.667 97.3333M701 101L700 98L707 98C704.515 96.9686 697.156 97.361 701 101M805 97L806 98L805 97z"/>
<path style="fill:#ecae5f; stroke:none;" d="M858 97L859 98L858 97z"/>
<path style="fill:#a2a09e; stroke:none;" d="M894 97L894 98L897 98L894 97z"/>
<path style="fill:#545454; stroke:none;" d="M910 117C906.693 119.051 905.551 123.119 901.981 124.972C880.549 136.094 885.66 87.224 903.852 102.429C905.755 104.02 906.357 105.73 907 108C915.172 102.518 900.343 96.5394 895.001 97.9537C891.828 98.7935 889.078 100.547 887.109 103.185C871.729 123.782 908.736 140.085 910 117z"/>
<path style="fill:#a2a09e; stroke:none;" d="M900.667 97.3333L901.333 97.6667L900.667 97.3333M971.667 97.3333L972.333 97.6667L971.667 97.3333z"/>
<path style="fill:#545454; stroke:none;" d="M987 117C983.12 119.337 981.798 124.372 976.996 125.551C959.257 129.907 961.308 94.6904 977.985 100.758C983.946 102.926 984.525 110.113 977.995 111.933C973.9 113.074 969.717 110.322 966 109C968.429 116.715 982.106 117.174 985.806 109.945C988.943 103.818 982.703 98.1198 977 97.3696C970.286 96.4863 963.611 101.756 961.653 108C955.511 127.581 985.879 137.473 987 117z"/>
<path style="fill:#a2a09e; stroke:none;" d="M978.667 97.3333L979.333 97.6667L978.667 97.3333M1046 97L1046 98L1050 98L1046 97z"/>
<path style="fill:#ecae5f; stroke:none;" d="M11 98L14 103L11 98z"/>
<path style="fill:#a2a09e; stroke:none;" d="M182 98L182 99L186 99L182 98z"/>
<path style="fill:#ecae5f; stroke:none;" d="M186 98L187 99L186 98z"/>
<path style="fill:#a2a09e; stroke:none;" d="M216 98L216 99L223 99L216 98M242 98L243 99L242 98M254 98L255 99L254 98z"/>
<path style="fill:#ecae5f; stroke:none;" d="M255 98L256 99L255 98M282 98L283 99L282 98z"/>
<path style="fill:#a2a09e; stroke:none;" d="M283 98L284 99L283 98z"/>
<path style="fill:#545454; stroke:none;" d="M278 102L277 102L268 100L268 101C278.323 102.632 276.769 121.395 272 128L280 129C277.464 122.38 274.283 101.482 285.985 101.457C289.237 101.45 291.434 104.457 294 106C292.657 97.3964 283.657 96.5338 278 102z"/>
<path style="fill:#a2a09e; stroke:none;" d="M288.667 98.3333L289.333 98.6667L288.667 98.3333z"/>
<path style="fill:#ecae5f; stroke:none;" d="M303 98L304 99L303 98z"/>
<path style="fill:#a2a09e; stroke:none;" d="M304 98L304 99L307 99L305 129L306 129L313 129L314 129L313 126L310 127C308.608 119.5 308.364 108.219 311 101L310 99L304 98z"/>
<path style="fill:#ecae5f; stroke:none;" d="M333 98L334 99L333 98z"/>
<path style="fill:#a2a09e; stroke:none;" d="M334 98L334 99L337 99L334 98z"/>
<path style="fill:#545454; stroke:none;" d="M337 98.7292C318.747 99.2914 318.728 129.33 337 129.641C355.501 129.956 356.233 98.1368 337 98.7292z"/>
<path style="fill:#a2a09e; stroke:none;" d="M338 98L338 99L342 99L338 98M373.667 98.3333L374.333 98.6667L373.667 98.3333z"/>
<path style="fill:#545454; stroke:none;" d="M369 102L368 102C365.142 99.0923 362.893 99.1176 359 100L359 101C369.323 102.632 367.769 121.395 363 128L371 128C367.307 121.627 365.909 101.48 376.985 101.457C380.237 101.45 382.434 104.457 385 106C384.6 97.0897 374.283 96.8946 369 102z"/>
<path style="fill:#a2a09e; stroke:none;" d="M379 98L380 99L379 98z"/>
<path style="fill:#ecae5f; stroke:none;" d="M380 98L381 99L380 98z"/>
<path style="fill:#a2a09e; stroke:none;" d="M436 98L437 99L436 98M453 98L453 99L457 99L453 98M505.333 98.6667L505.667 99.3333L505.333 98.6667M560.667 98.3333L561.333 98.6667L560.667 98.3333z"/>
<path style="fill:#545454; stroke:none;" d="M562 98.5687C544.024 101.908 547.512 132.799 566 129.431C584.122 126.129 580.956 95.0472 562 98.5687z"/>
<path style="fill:#a2a09e; stroke:none;" d="M566.667 98.3333L567.333 98.6667L566.667 98.3333M594 98L595 99L594 98M606 98L607 99L606 98M613 98L613 116L614 116L613 98z"/>
<path style="fill:#ecae5f; stroke:none;" d="M630.667 98.3333L631.333 98.6667L630.667 98.3333z"/>
<path style="fill:#a2a09e; stroke:none;" d="M632 98L632 99L635 100L632 98M651 98L651 99L656 100L651 98z"/>
<path style="fill:#545454; stroke:none;" d="M700 98L701 101C705.283 100.369 714.75 104.125 708.677 109.258C703.402 113.717 694.927 108.887 691.407 117.019C685.271 131.197 705.539 128.381 712 125C713.986 128.6 716.111 129.028 720 128C708.462 121.708 720.461 103.433 708.956 98.7423C706.225 97.6287 702.885 98.0019 700 98z"/>
<path style="fill:#a2a09e; stroke:none;" d="M709 98L710 99L709 98M740.667 98.3333L741.333 98.6667L740.667 98.3333z"/>
<path style="fill:#545454; stroke:none;" d="M736 102L735 102C732.142 99.0923 729.893 99.1176 726 100L726 101C736.358 102.617 734.822 121.321 730 128L738 129C735.463 122.38 732.284 101.482 743.985 101.457C747.237 101.45 749.434 104.457 752 106C751.6 97.0897 741.283 96.8945 736 102z"/>
<path style="fill:#a2a09e; stroke:none;" d="M746.667 98.3333L747.333 98.6667L746.667 98.3333M804 98L805 99L804 98M809 98L810 99L809 98M834 98L834 99L837 99C836.721 107.517 841.57 120.041 835 127L835 128L844 127L844 126L840 99L838 100L834 98M854 98L854 99L859 99L854 98M862 98L862 99L869 99L862 98z"/>
<path style="fill:#ecae5f; stroke:none;" d="M869 98L870 99L869 98z"/>
<path style="fill:#a2a09e; stroke:none;" d="M892 98L893 99L892 98M904 98L905 99L904 98M935 98L935 99L939 99L935 98z"/>
<path style="fill:#ecae5f; stroke:none;" d="M939 98L940 99L939 98z"/>
<path style="fill:#a2a09e; stroke:none;" d="M969 98L970 99L969 98M981 98L982 99L981 98M1011 98L1011 99L1015 99L1011 98z"/>
<path style="fill:#ecae5f; stroke:none;" d="M1015 98L1016 99L1015 98z"/>
<path style="fill:#a2a09e; stroke:none;" d="M1043 98L1044 99L1043 98z"/>
<path style="fill:#545454; stroke:none;" d="M1039 117L1038 117C1035.64 129.243 1055.83 134.042 1060.1 122.957C1065.43 109.126 1043.05 115.586 1041.92 106.947C1041.34 102.53 1047.44 99.9169 1050.96 101.103C1054.95 102.45 1056.32 106.257 1057 110C1065.15 103.814 1047.69 93.0418 1040.43 101.228C1038.1 103.856 1037.51 107.832 1039.74 110.721C1043.74 115.895 1053.79 112.052 1056.71 118.228C1058.86 122.762 1052.98 126.732 1049 126.467C1043.64 126.109 1040.95 121.329 1039 117z"/>
<path style="fill:#a2a09e; stroke:none;" d="M1053 98L1054 99L1053 98M164 101L164 102L169 102L169 101L167 101L167 100L172 100L164 101M179 99L180 100L179 99z"/>
<path style="fill:#545454; stroke:none;" d="M167 100L167 101C175.158 105.577 172.911 121.402 170 129L177 129C175.829 125.247 175.026 121.961 175.001 118C174.982 115.114 174.607 111.822 175.318 109.001C176.957 102.498 185.419 98.7492 190.272 104.419C195.161 110.13 193.787 122.259 190 128L198 128C194.023 120.849 198.053 112.296 194.566 105.015C190.042 95.5673 175.353 100.218 167 100z"/>
<path style="fill:#a2a09e; stroke:none;" d="M189 99L190 100L189 99M241 99L242 100L241 99M256 99L257 100L256 99M269 99L270 100L269 99M274.667 99.3333L275.333 99.6667L274.667 99.3333M280 99L281 100L280 99M291 99L292 100L291 99M300 100L300 101L305 101L300 100z"/>
<path style="fill:#545454; stroke:none;" d="M302 99L302 100L307 100L302 99M308 99L309 100L308 99z"/>
<path style="fill:#a2a09e; stroke:none;" d="M331 99L332 100L331 99M343 99L344 100L343 99M360 99L361 100L360 99z"/>
<path style="fill:#ecae5f; stroke:none;" d="M366 99L367 100L366 99z"/>
<path style="fill:#a2a09e; stroke:none;" d="M371 99L372 100L371 99z"/>
<path style="fill:#ecae5f; stroke:none;" d="M382 99L383 100L382 99z"/>
<path style="fill:#a2a09e; stroke:none;" d="M435 99L436 100L435 99M440 99L441 100L440 99M450 99L451 100L450 99M459 99L460 100L459 99M499 99L499 124L500 124L499 99M509.333 99.6667L509.667 100.333L509.333 99.6667M527 99L528 100L527 99M531 99L532 100L531 99M558 99L559 100L558 99M570 99L571 100L570 99M592 99L593 100L592 99M607 99L608 100L607 99M629 99L632 102L632 101L629 99z"/>
<path style="fill:#545454; stroke:none;" d="M630 99C632.877 106.509 630.069 114.728 632.893 121.995C636.082 130.198 646.34 130.47 652 125L653 125L661 128L661 127C650.67 121.204 662.53 99.9763 650 99C653.112 105.483 654.421 112.929 651.736 119.985C649.513 125.827 642.15 128.424 637.434 123.58C631.35 117.333 640.292 100.717 630 99z"/>
<path style="fill:#a2a09e; stroke:none;" d="M711 99L712 100L711 99M727 99L728 100L727 99M733 99L734 100L733 99M738 99L739 100L738 99M749 99L750 100L749 99M803 99L804 100L803 99M808 99L809 100L808 99z"/>
<path style="fill:#ecae5f; stroke:none;" d="M831 99L832 100L831 99z"/>
<path style="fill:#a2a09e; stroke:none;" d="M830 100L830 101L835 101L830 100z"/>
<path style="fill:#545454; stroke:none;" d="M833 99L833 100L837 101L833 99M838 99L839 100L838 99z"/>
<path style="fill:#a2a09e; stroke:none;" d="M870.333 99.6667L870.667 100.333L870.333 99.6667M890 99L891 100L890 99M931.667 99.3333L932.333 99.6667L931.667 99.3333M942 99L943 100L942 99M967 99L968 100L967 99M996 99L996 100L1001 100L996 99M1004 101L1004 102L1009 100L1004 101z"/>
<path style="fill:#545454; stroke:none;" d="M995 100L995 101C1004.76 104.512 1001.44 121.169 999 129L1006 129C1004.55 125.222 1004.01 122.067 1004 118C1003.99 114.796 1003.56 111.132 1004.43 108.015C1006.22 101.688 1014.8 99.1993 1019.27 104.419C1024.16 110.13 1022.79 122.259 1019 128L1027 128C1021.62 120.542 1026.86 111.613 1022.82 104.044C1018.43 95.8127 1002.73 100.08 995 100z"/>
<path style="fill:#a2a09e; stroke:none;" d="M1018 99L1019 100L1018 99M1041 99L1042 100L1041 99M1055 99L1056 100L1055 99M173 100L174 101L173 100M177 100L178 101L177 100M191 100L192 101L191 100z"/>
<path style="fill:#ecae5f; stroke:none;" d="M224 100L225 101L224 100z"/>
<path style="fill:#a2a09e; stroke:none;" d="M239 100L240 101L239 100M246.667 100.333L247.333 100.667L246.667 100.333z"/>
<path style="fill:#ecae5f; stroke:none;" d="M248 100L249 101L248 100z"/>
<path style="fill:#a2a09e; stroke:none;" d="M249 100L249 101L252 101L249 100M266.667 100.333L267.333 100.667L266.667 100.333M276 100L277 101L276 100M292 100L293 101L292 100z"/>
<path style="fill:#545454; stroke:none;" d="M309 100L310 101L309 100z"/>
<path style="fill:#a2a09e; stroke:none;" d="M329 100L330 101L329 100M345 100L346 101L345 100M357.667 100.333L358.333 100.667L357.667 100.333M367 100L368 101L367 100M369 100L370 101L369 100M383 100L384 101L383 100M426.333 100.667L426.667 101.333L426.333 100.667M430 100L431 101L430 100M434 100L435 101L434 100M439 100L440 101L439 100M449 100L450 101L449 100M460 100L461 101L460 100z"/>
<path style="fill:#ecae5f; stroke:none;" d="M531 100L532 101L531 100z"/>
<path style="fill:#a2a09e; stroke:none;" d="M556 100L557 101L556 100M572 100L573 101L572 100M591 100L592 101L591 100M597 100L597 101L603 101L597 100z"/>
<path style="fill:#ecae5f; stroke:none;" d="M635 100L636 101L635 100z"/>
<path style="fill:#a2a09e; stroke:none;" d="M702 100L702 101L706 101L702 100M712 100L713 101L712 100M725 100L726 101L725 100M734 100L735 101L734 100M750 100L751 101L750 100M802 100L803 101L802 100M807 100L808 101L807 100M889 100L890 101L889 100M895 100L895 101L902 101L895 100M907 100L908 101L907 100z"/>
<path style="fill:#ecae5f; stroke:none;" d="M929 100L930 101L929 100z"/>
<path style="fill:#a2a09e; stroke:none;" d="M930 100L931 101L930 100M944 100L945 101L944 100M966 100L967 101L966 100M972 100L972 101L979 101L972 100M984 100L985 101L984 100M993 101L993 102L998 102L993 101z"/>
<path style="fill:#ecae5f; stroke:none;" d="M1002 100L1003 101L1002 100z"/>
<path style="fill:#a2a09e; stroke:none;" d="M1020 100L1021 101L1020 100M1040 100L1041 101L1040 100M1047 100L1047 101L1051 101L1047 100M1056 100L1057 101L1056 100M174.667 101.333L175.333 101.667L174.667 101.333M181 101L181 102L186 102L181 101M192 101L193 102L192 101M207 101L207 102L212 102L207 101M216 101L216 102L224 102L216 101M238 101L239 102L238 101M239 106L245 102L239 106z"/>
<path style="fill:#fefcf8; stroke:none;" d="M239 109C241.677 109.763 244.27 111.067 247 111.606C262.692 114.705 253.928 93.3013 242.228 103.429C240.419 104.996 239.746 106.827 239 109z"/>
<path style="fill:#a2a09e; stroke:none;" d="M253 101L254 102L253 101M271.667 101.333L272.333 101.667L271.667 101.333M277 101L278 102L277 101M283.667 101.333L284.333 101.667L283.667 101.333z"/>
<path style="fill:#ecae5f; stroke:none;" d="M286 101L287 102L286 101z"/>
<path style="fill:#a2a09e; stroke:none;" d="M287.667 101.333L288.333 101.667L287.667 101.333M293 101L294 102L293 101M328 101L329 102L328 101M333.667 101.333L334.333 101.667L333.667 101.333z"/>
<path style="fill:#ecae5f; stroke:none;" d="M335 101L336 102L335 101z"/>
<path style="fill:#fefcf8; stroke:none;" d="M336 101.627C321.995 103.88 324.678 128.853 339.996 125.721C352.642 123.135 349.803 99.405 336 101.627z"/>
<path style="fill:#ecae5f; stroke:none;" d="M339 101L340 102L339 101z"/>
<path style="fill:#a2a09e; stroke:none;" d="M340.667 101.333L341.333 101.667L340.667 101.333M346 101L347 102L346 101M362.667 101.333L363.333 101.667L362.667 101.333M368 101L369 102L368 101M374.667 101.333L375.333 101.667L374.667 101.333z"/>
<path style="fill:#ecae5f; stroke:none;" d="M376.667 101.333L377.333 101.667L376.667 101.333z"/>
<path style="fill:#a2a09e; stroke:none;" d="M378.667 101.333L379.333 101.667L378.667 101.333M384 101L385 102L384 101M433 101L434 102L433 101M438 101L439 102L438 101M461 101L462 102L461 101M506 101L507 102L506 101z"/>
<path style="fill:#ecae5f; stroke:none;" d="M510 101L511 102L510 101M526 101L527 102L526 101z"/>
<path style="fill:#a2a09e; stroke:none;" d="M530.333 101.667L530.667 102.333L530.333 101.667M554 101L555 102L554 101M560.667 101.333L561.333 101.667L560.667 101.333z"/>
<path style="fill:#fefcf8; stroke:none;" d="M562 101.613C547.905 104.971 552.055 129.63 566.996 125.566C579.818 122.077 576.137 98.2441 562 101.613z"/>
<path style="fill:#a2a09e; stroke:none;" d="M566.667 101.333L567.333 101.667L566.667 101.333M573 101L574 102L573 101M590 101L591 102L590 101M595 101L592 105L595 101z"/>
<path style="fill:#fefcf8; stroke:none;" d="M596.055 102.028C585.505 107.712 592.24 131.947 604.891 124.103C614.598 118.084 608.899 95.1071 596.055 102.028z"/>
<path style="fill:#ecae5f; stroke:none;" d="M604 101L605 102L604 101z"/>
<path style="fill:#a2a09e; stroke:none;" d="M605 101L606 102L605 101M635.333 101.667L635.667 102.333L635.333 101.667M651 101L652 102L651 101z"/>
<path style="fill:#ecae5f; stroke:none;" d="M707 101L708 102L707 101z"/>
<path style="fill:#a2a09e; stroke:none;" d="M708 101L709 102L708 101z"/>
<path style="fill:#ecae5f; stroke:none;" d="M729 101L730 102L729 101z"/>
<path style="fill:#a2a09e; stroke:none;" d="M730 101L731 102L730 101M735 101L736 102L735 101M741.667 101.333L742.333 101.667L741.667 101.333z"/>
<path style="fill:#ecae5f; stroke:none;" d="M743.667 101.333L744.333 101.667L743.667 101.333z"/>
<path style="fill:#a2a09e; stroke:none;" d="M745.667 101.333L746.333 101.667L745.667 101.333M751 101L752 102L751 101M801 101L802 102L801 101M806 101L807 102L806 101M854 101L854 102L859 102L854 101M862 101L862 102L870 102L862 101z"/>
<path style="fill:#ecae5f; stroke:none;" d="M887 101L888 102L887 101z"/>
<path style="fill:#a2a09e; stroke:none;" d="M893 101L894 102L893 101M903 101L904 102L903 101z"/>
<path style="fill:#ecae5f; stroke:none;" d="M908 101L909 102L908 101z"/>
<path style="fill:#a2a09e; stroke:none;" d="M928 101L929 102L928 101M935 101L935 102L940 102L935 101M945 101L946 102L945 101M965 101L966 102L965 101M970 101L971 102L970 101z"/>
<path style="fill:#fefcf8; stroke:none;" d="M965 109C967.756 109.623 970.252 110.981 973 111.582C989.493 115.185 979.714 93.0464 968.394 103.429C966.717 104.967 965.898 106.977 965 109z"/>
<path style="fill:#ecae5f; stroke:none;" d="M979 101L980 102L979 101z"/>
<path style="fill:#a2a09e; stroke:none;" d="M980 101L981 102L980 101M985 101L986 102L985 101z"/>
<path style="fill:#ecae5f; stroke:none;" d="M1003 101L1004 102L1003 101z"/>
<path style="fill:#a2a09e; stroke:none;" d="M1010 101L1010 102L1015 102L1010 101M1021 101L1022 102L1021 101M1039 101L1040 102L1039 101M1044 101L1045 102L1044 101M1052 101L1053 102L1052 101M1057 101L1058 102L1057 101M170 102L171 103L170 102M179 102L180 103L179 102M188 102L189 103L188 102M193 102L194 103L193 102M212 102L212 125L213 125L212 102M255 102L256 103L255 102M259 102L260 103L259 102M273 102L274 103L273 102M281 102L282 103L281 102M290 102L291 103L290 102M294 102L294 106L295 106L294 102z"/>
<path style="fill:#545454; stroke:none;" d="M310 102L310 127L311 127L310 102z"/>
<path style="fill:#a2a09e; stroke:none;" d="M327 102L328 103L327 102M331 102L332 103L331 102z"/>
<path style="fill:#ecae5f; stroke:none;" d="M332 102L333 103L332 102z"/>
<path style="fill:#a2a09e; stroke:none;" d="M342.667 102.333L343.333 102.667L342.667 102.333M348.333 102.667L348.667 103.333L348.333 102.667M364 102L365 103L364 102M372 102L373 103L372 102M381 102L382 103L381 102M431.667 102.333L432.333 102.667L431.667 102.333M437 102L438 103L437 102M447 102L448 103L447 102M452 102L453 103L452 102M457 102L458 103L457 102M462 102L463 103L462 102M510 102L511 103L510 102M526 102L527 103L526 102M553 102L554 103L553 102M558 102L559 103L558 102M569 102L570 103L569 102M574 102L575 103L574 102z"/>
<path style="fill:#ecae5f; stroke:none;" d="M589 102L590 103L589 102z"/>
<path style="fill:#a2a09e; stroke:none;" d="M606 102L607 103L606 102z"/>
<path style="fill:#ecae5f; stroke:none;" d="M631 102L632 103L631 102z"/>
<path style="fill:#a2a09e; stroke:none;" d="M652 102L652 118L653 118L652 102M709 102L710 103L709 102M713 102L714 103L713 102M731 102L732 103L731 102M739 102L740 103L739 102M748 102L749 103L748 102M752.333 102.667L752.667 103.333L752.333 102.667M800 102L801 103L800 102M805 102L806 103L805 102z"/>
<path style="fill:#ecae5f; stroke:none;" d="M839.333 102.667L839.667 103.333L839.333 102.667M858 102L859 103L858 102z"/>
<path style="fill:#a2a09e; stroke:none;" d="M887 102L888 103L887 102M891 102L892 103L891 102M904 102L905 103L904 102M932 102L933 103L932 102M941 102L942 103L941 102M946 102L947 103L946 102M964 102L965 103L964 102M968 102L969 103L968 102M981 102L982 103L981 102M999 102L1000 103L999 102M1008 102L1009 103L1008 102z"/>
<path style="fill:#ecae5f; stroke:none;" d="M1016 102L1017 103L1016 102z"/>
<path style="fill:#a2a09e; stroke:none;" d="M1017 102L1018 103L1017 102M1022 102L1023 103L1022 102M1043 102L1044 103L1043 102M1053.67 102.333L1054.33 102.667L1053.67 102.333z"/>
<path style="fill:#ecae5f; stroke:none;" d="M1058 102L1059 103L1058 102z"/>
<path style="fill:#a2a09e; stroke:none;" d="M171 103L171 106L172 106L171 103z"/>
<path style="fill:#ecae5f; stroke:none;" d="M178 103L179 104L178 103z"/>
<path style="fill:#a2a09e; stroke:none;" d="M190 103L191 104L190 103M194 103L195 104L194 103M256 103L257 104L256 103M280 103L281 104L280 103z"/>
<path style="fill:#fefcf8; stroke:none;" d="M309 103L310 104L309 103z"/>
<path style="fill:#a2a09e; stroke:none;" d="M326 103L327 104L326 103M330 103L331 104L330 103M344 103L345 104L344 103M371 103L372 104L371 103M385 103L386 104L385 103M427 103L428 104L427 103M436 103L437 104L436 103M446 103L447 104L446 103z"/>
<path style="fill:#ecae5f; stroke:none;" d="M451 103L452 104L451 103z"/>
<path style="fill:#a2a09e; stroke:none;" d="M458 103L459 104L458 103M507.333 103.667L507.667 104.333L507.333 103.667z"/>
<path style="fill:#ecae5f; stroke:none;" d="M552 103L553 104L552 103z"/>
<path style="fill:#a2a09e; stroke:none;" d="M557 103L558 104L557 103M571 103L572 104L571 103M575 103L576 104L575 103M607 103L608 104L607 103z"/>
<path style="fill:#ecae5f; stroke:none;" d="M635 103L636 104L635 103z"/>
<path style="fill:#a2a09e; stroke:none;" d="M710 103L711 104L710 103M732 103L732 126L733 126L732 103M738 103L739 104L738 103M799 103L800 104L799 103M804.333 103.667L804.667 104.333L804.333 103.667z"/>
<path style="fill:#ecae5f; stroke:none;" d="M837 103L838 104L837 103z"/>
<path style="fill:#a2a09e; stroke:none;" d="M886 103L887 104L886 103M890 103L891 104L890 103M905 103L906 104L905 103M909 103L910 104L909 103M930 103L931 104L930 103M943 103L944 104L943 103M947.333 103.667L947.667 104.333L947.333 103.667M963 103L964 104L963 103M967 103L968 104L967 103M982 103L983 104L982 103M986.333 103.667L986.667 104.333L986.333 103.667M1006 103L1007 104L1006 103z"/>
<path style="fill:#ecae5f; stroke:none;" d="M1007 103L1008 104L1007 103M1018 103L1019 104L1018 103z"/>
<path style="fill:#a2a09e; stroke:none;" d="M1019.33 103.667L1019.67 104.333L1019.33 103.667M1038 103L1039 104L1038 103M1042 103L1043 104L1042 103z"/>
<path style="fill:#ecae5f; stroke:none;" d="M1054 103L1055 104L1054 103z"/>
<path style="fill:#a2a09e; stroke:none;" d="M1058 103L1059 104L1058 103M236 104L237 105L236 104z"/>
<path style="fill:#ecae5f; stroke:none;" d="M256 104L257 105L256 104z"/>
<path style="fill:#a2a09e; stroke:none;" d="M260 104L260 109L261 109L260 104M274 104L274 126L275 126L274 104M279 104L280 105L279 104M291 104L292 105L291 104M325 104L326 105L325 104M329 104L330 105L329 104M345 104L346 105L345 104M349 104L350 105L349 104M365 104L365 126L366 126L365 104M370 104L371 105L370 104M382 104L383 105L382 104z"/>
<path style="fill:#ecae5f; stroke:none;" d="M427 104L428 105L427 104z"/>
<path style="fill:#a2a09e; stroke:none;" d="M434 104L435 105L434 104z"/>
<path style="fill:#ecae5f; stroke:none;" d="M450 104L451 105L450 104z"/>
<path style="fill:#a2a09e; stroke:none;" d="M511.333 104.667L511.667 105.333L511.333 104.667M525 104L526 105L525 104M529.333 104.667L529.667 105.333L529.333 104.667M552 104L553 105L552 104M556 104L557 105L556 104M572 104L573 105L572 104M576 104L577 105L576 104M588 104L589 105L588 104z"/>
<path style="fill:#ecae5f; stroke:none;" d="M710 104L711 105L710 104z"/>
<path style="fill:#a2a09e; stroke:none;" d="M737 104L738 105L737 104z"/>
<path style="fill:#ecae5f; stroke:none;" d="M749 104L750 105L749 104M797 104L798 105L797 104z"/>
<path style="fill:#a2a09e; stroke:none;" d="M798 104L799 105L798 104M885.333 104.667L885.667 105.333L885.333 104.667M889 104L890 105L889 104M906.333 104.667L906.667 105.333L906.333 104.667M929 104L930 105L929 104z"/>
<path style="fill:#ecae5f; stroke:none;" d="M943 104L944 105L943 104z"/>
<path style="fill:#a2a09e; stroke:none;" d="M966.333 104.667L966.667 105.333L966.333 104.667M1000 104L1000 126L1001 126L1000 104M1005 104L1006 105L1005 104M1023 104L1024 105L1023 104M1041 104L1041 109L1042 109L1041 104M1055 104L1056 105L1055 104M176 105L177 106L176 105M191 105L192 106L191 105z"/>
<path style="fill:#ecae5f; stroke:none;" d="M324 105L325 106L324 105z"/>
<path style="fill:#a2a09e; stroke:none;" d="M328 105L329 106L328 105M346 105L347 106L346 105z"/>
<path style="fill:#ecae5f; stroke:none;" d="M350 105L351 106L350 105M370 105L371 106L370 105M382 105L383 106L382 105z"/>
<path style="fill:#a2a09e; stroke:none;" d="M385 105L386 106L385 105M426 105L427 106L426 105M433.333 105.667L433.667 106.333L433.333 105.667M445.333 105.667L445.667 106.333L445.333 105.667M449 105L450 106L449 105M459.333 105.667L459.667 106.333L459.333 105.667z"/>
<path style="fill:#ecae5f; stroke:none;" d="M463 105L464 106L463 105M507 105L508 106L507 105z"/>
<path style="fill:#a2a09e; stroke:none;" d="M551 105L552 106L551 105M555 105L556 106L555 105M608 105L609 106L608 105M714 105L714 125L715 125L714 105M752 105L753 106L752 105z"/>
<path style="fill:#ecae5f; stroke:none;" d="M796 105L797 106L796 105M805 105L806 106L805 105M839.333 105.667L839.667 106.333L839.333 105.667z"/>
<path style="fill:#a2a09e; stroke:none;" d="M944.333 105.667L944.667 106.333L944.333 105.667M962 105L963 106L962 105M983 105L984 106L983 105M1020.33 105.667L1020.67 106.333L1020.33 105.667M1059.33 105.667L1059.67 106.333L1059.33 105.667M175 106L175 110L176 110L175 106M195.333 106.667L195.667 107.333L195.333 106.667M235 106L236 107L235 106z"/>
<path style="fill:#ecae5f; stroke:none;" d="M239 106L240 107L239 106z"/>
<path style="fill:#a2a09e; stroke:none;" d="M278 106L279 107L278 106z"/>
<path style="fill:#ecae5f; stroke:none;" d="M292 106L293 107L292 106z"/>
<path style="fill:#a2a09e; stroke:none;" d="M293 106L294 107L293 106M324 106L325 107L324 106M347 106L347 109L348 109L347 106M350 106L351 107L350 106M369.333 106.667L369.667 107.333L369.333 106.667z"/>
<path style="fill:#ecae5f; stroke:none;" d="M383 106L384 107L383 106z"/>
<path style="fill:#a2a09e; stroke:none;" d="M384 106L385 107L384 106M425 106L426 107L425 106M508.333 106.667L508.667 107.333L508.333 106.667M554 106L555 107L554 106M573 106L574 107L573 106M577 106L578 107L577 106z"/>
<path style="fill:#ecae5f; stroke:none;" d="M587 106L588 107L587 106z"/>
<path style="fill:#a2a09e; stroke:none;" d="M591.333 106.667L591.667 107.333L591.333 106.667M736.333 106.667L736.667 107.333L736.333 106.667z"/>
<path style="fill:#ecae5f; stroke:none;" d="M750 106L751 107L750 106z"/>
<path style="fill:#a2a09e; stroke:none;" d="M751 106L752 107L751 106M795 106L796 107L795 106z"/>
<path style="fill:#ecae5f; stroke:none;" d="M884 106L885 107L884 106z"/>
<path style="fill:#a2a09e; stroke:none;" d="M888 106L889 107L888 106M928 106L929 107L928 106M965 106L966 107L965 106z"/>
<path style="fill:#ecae5f; stroke:none;" d="M983 106L984 107L983 106z"/>
<path style="fill:#a2a09e; stroke:none;" d="M1004 106L1005 107L1004 106M1056 106L1056 110L1057 110L1056 106M215.333 107.667L215.667 108.333L215.333 107.667M327 107L328 108L327 107z"/>
<path style="fill:#ecae5f; stroke:none;" d="M423 107L424 108L423 107M434 107L435 108L434 107M444 107L445 108L444 107z"/>
<path style="fill:#a2a09e; stroke:none;" d="M448 107L449 108L448 107M512 107L513 108L512 107M524 107L525 108L524 107M528 107L529 108L528 107M550.333 107.667L550.667 108.333L550.333 107.667M574.333 107.667L574.667 108.333L574.333 107.667M587 107L588 108L587 107M710.333 107.667L710.667 108.333L710.333 107.667M794 107L795 108L794 107z"/>
<path style="fill:#ecae5f; stroke:none;" d="M801 107L802 108L801 107z"/>
<path style="fill:#a2a09e; stroke:none;" d="M806 107L807 108L806 107M884 107L885 108L884 107M909 107L910 108L909 107M948 107L948 126L949 126L948 107M961 107L962 108L961 107z"/>
<path style="fill:#ecae5f; stroke:none;" d="M965 107L966 108L965 107z"/>
<path style="fill:#a2a09e; stroke:none;" d="M983.333 107.667L983.667 108.333L983.333 107.667z"/>
<path style="fill:#ecae5f; stroke:none;" d="M1020 107L1021 108L1020 107z"/>
<path style="fill:#a2a09e; stroke:none;" d="M1024 107L1024 126L1025 126L1024 107z"/>
<path style="fill:#ecae5f; stroke:none;" d="M234 108L235 109L234 108z"/>
<path style="fill:#a2a09e; stroke:none;" d="M238.333 108.667L238.667 109.333L238.333 108.667M323.333 108.667L323.667 109.333L323.333 108.667z"/>
<path style="fill:#ecae5f; stroke:none;" d="M327 108L328 109L327 108M351 108L352 109L351 108z"/>
<path style="fill:#a2a09e; stroke:none;" d="M422 108L423 109L422 108M428 108L429 109L428 108z"/>
<path style="fill:#fefcf8; stroke:none;" d="M430 108C428.258 108.926 426.717 109.679 425.409 111.228C413.154 125.728 445.633 131.771 434.907 116C433.141 113.403 431.598 110.7 430 108z"/>
<path style="fill:#a2a09e; stroke:none;" d="M430 108L431 109L430 108M434 108L435 109L434 108M444.333 108.667L444.667 109.333L444.333 108.667z"/>
<path style="fill:#ecae5f; stroke:none;" d="M458 108L459 109L458 108M528 108L529 109L528 108z"/>
<path style="fill:#a2a09e; stroke:none;" d="M553.333 108.667L553.667 109.333L553.333 108.667M609.333 108.667L609.667 109.333L609.333 108.667M793 108L794 109L793 108M798 108L799 109L798 108M802 108L803 109L802 108M807 108L808 109L807 108z"/>
<path style="fill:#ecae5f; stroke:none;" d="M858 108L858 117L859 117L858 108M908 108L909 109L908 108z"/>
<path style="fill:#a2a09e; stroke:none;" d="M945 108L945 120L946 120L945 108M1059.33 108.667L1059.67 109.333L1059.33 108.667M192 109L192 125L193 125L192 109M234.333 109.667L234.667 110.333L234.333 109.667M241 109L242 110L241 109M256 109L257 110L256 109M326 109L326 119L327 119L326 109M348 109L348 118L349 118L348 109M351 109L351 118L352 118L351 109M368 109L368 112L369 112L368 109M426 109L427 110L426 109M447.333 109.667L447.667 110.333L447.333 109.667M457 109L458 110L457 109M462 109L463 110L462 109M509.333 109.667L509.667 110.333L509.333 109.667z"/>
<path style="fill:#ecae5f; stroke:none;" d="M523 109L524 110L523 109z"/>
<path style="fill:#a2a09e; stroke:none;" d="M527.333 109.667L527.667 110.333L527.333 109.667M709 109L710 110L709 109M797 109L798 110L797 109M803 109L804 110L803 109z"/>
<path style="fill:#ecae5f; stroke:none;" d="M839 109L840 110L839 109z"/>
<path style="fill:#a2a09e; stroke:none;" d="M887.333 109.667L887.667 110.333L887.333 109.667M964 109L964 112L966 112L966 109L964 109z"/>
<path style="fill:#ecae5f; stroke:none;" d="M968 109L969 110L968 109z"/>
<path style="fill:#a2a09e; stroke:none;" d="M986 109L987 110L986 109M1021 109L1021 125L1022 125L1021 109M1038 109L1039 110L1038 109M1042 109L1043 110L1042 109z"/>
<path style="fill:#ecae5f; stroke:none;" d="M11 119L12 119C12.3363 108.674 36.3646 106.62 38.6821 115.059C39.9308 119.606 40.6047 132.875 37.3966 136.566C32.8168 141.837 14.7213 140.251 12 134C9.25748 142.472 37.3962 142.938 39.5664 135.891C40.9754 131.316 42.0208 113.923 37.6821 111.028C29.4081 105.507 11.0373 108.457 11 119M48 115L49 115C52.1982 109.2 60.1928 111 66 111L112 111C99.117 105.594 76.0383 110 62 110C56.6531 110 49.1565 108.34 48 115M175 110L175 124L176 124L175 110z"/>
<path style="fill:#a2a09e; stroke:none;" d="M242.667 110.333L243.333 110.667L242.667 110.333M255 110L256 111L255 110M259 110L260 111L259 110M421 110L422 111L421 110M425 110L426 111L425 110M431 110L432 111L431 110M435 110L436 111L435 110M455 110L457 113L455 110M461 110L462 111L461 110M513 110L514 111L513 110M523 110L524 111L523 110z"/>
<path style="fill:#ecae5f; stroke:none;" d="M549 110L550 111L549 110M553 110L554 111L553 110z"/>
<path style="fill:#a2a09e; stroke:none;" d="M578 110L578 117L579 117L578 110M590 110L590 116L591 116L590 110M706.667 110.333L707.333 110.667L706.667 110.333M796 110L797 111L796 110M808 110L809 111L808 110M883 110L883 117L884 117L883 110z"/>
<path style="fill:#ecae5f; stroke:none;" d="M960 110L961 111L960 110z"/>
<path style="fill:#a2a09e; stroke:none;" d="M969 110L970 111L969 110z"/>
<path style="fill:#ecae5f; stroke:none;" d="M986 110L987 111L986 110M1038 110L1039 111L1038 110z"/>
<path style="fill:#a2a09e; stroke:none;" d="M1043 110L1044 111L1043 110z"/>
<path style="fill:#ecae5f; stroke:none;" d="M1044 110L1045 111L1044 110z"/>
<path style="fill:#a2a09e; stroke:none;" d="M1057.67 110.333L1058.33 110.667L1057.67 110.333z"/>
<path style="fill:#f48d14; stroke:none;" d="M13.6026 112.028C10.7745 114.252 11.8068 119.911 11.8302 123C11.8639 127.433 9.82789 132.699 12.8187 136.632C15.8029 140.556 34.0014 140.581 37.3966 137.258C39.9858 134.723 39 129.268 39 126C39 122.469 40.3007 115.543 37.9722 112.603C35.4634 109.436 16.6999 109.592 13.6026 112.028M50.5139 112.028C46.0191 115.239 46.0318 135.83 51.2284 138.258C55.2664 140.144 61.6432 139 66 139L98 139C101.972 139 109.059 140.322 112.436 137.821C116.88 134.529 117.006 114.06 111.721 111.603C108.031 109.888 101.987 111 98 111L65 111C61.0786 111 53.8641 109.634 50.5139 112.028z"/>
<path style="fill:#ecae5f; stroke:none;" d="M113 111L114 138L115 138C116.223 131.411 118.944 115.525 113 111z"/>
<path style="fill:#a2a09e; stroke:none;" d="M239 111L240 112L239 111M244.667 111.333L245.333 111.667L244.667 111.333M253 111L254 112L253 111z"/>
<path style="fill:#ecae5f; stroke:none;" d="M259 111L260 112L259 111z"/>
<path style="fill:#a2a09e; stroke:none;" d="M420 111L421 112L420 111M424 111L425 112L424 111M436 111L437 112L436 111M443.333 111.667L443.667 112.333L443.333 111.667M510.333 111.667L510.667 112.333L510.333 111.667M549 111L549 118L550 118L549 111M696.667 111.333L697.333 111.667L696.667 111.333M795 111L796 112L795 111z"/>
<path style="fill:#ecae5f; stroke:none;" d="M804 111L805 112L804 111z"/>
<path style="fill:#a2a09e; stroke:none;" d="M809 111L810 112L809 111z"/>
<path style="fill:#ecae5f; stroke:none;" d="M887 111L888 112L887 111z"/>
<path style="fill:#a2a09e; stroke:none;" d="M960 111L960 117L961 117L960 111M971 111L972 112L971 111z"/>
<path style="fill:#ecae5f; stroke:none;" d="M979 111L980 112L979 111z"/>
<path style="fill:#a2a09e; stroke:none;" d="M980 111L981 112L980 111M985 111L986 112L985 111M1039 111L1040 112L1039 111M1047 111L1047 112L1052 112L1047 111M237 112L237 115L238 115L237 112M240 112L241 113L240 112M248 112L248 113L251 113L248 112M258 112L259 113L258 112M432 112L433 113L432 112M459 112L460 113L459 112M514 112L515 113L514 112M522 112L523 113L522 112M526.333 112.667L526.667 113.333L526.333 112.667M586 112L587 113L586 112M694 112L695 113L694 112M710 112L712 114L710 112M794 112L795 113L794 112M805 112L806 113L805 112M810 112L811 113L810 112M966 112L967 113L966 112M975 112L975 113L978 113L975 112M984 112L985 113L984 112M1040 112L1041 113L1040 112M1054.67 112.333L1055.33 112.667L1054.67 112.333z"/>
<path style="fill:#ecae5f; stroke:none;" d="M147 113L147 116L148 116L147 113z"/>
<path style="fill:#a2a09e; stroke:none;" d="M241.667 113.333L242.333 113.667L241.667 113.333M256 113L257 114L256 113z"/>
<path style="fill:#ecae5f; stroke:none;" d="M257 113L258 114L257 113z"/>
<path style="fill:#a2a09e; stroke:none;" d="M419 113L420 114L419 113M423 113L424 114L423 113M433 113L434 114L433 113M437 113L438 114L437 113M446.333 113.667L446.667 114.333L446.333 113.667z"/>
<path style="fill:#ecae5f; stroke:none;" d="M586 113L587 114L586 113z"/>
<path style="fill:#a2a09e; stroke:none;" d="M693 113L694 114L693 113M704 113L704 114L709 114L704 113z"/>
<path style="fill:#fefcf8; stroke:none;" d="M711 113C707.687 113.615 704.297 113.804 701.004 114.468C685.392 117.614 703.78 133.822 709.656 119.958C710.598 117.734 710.805 115.372 711 113z"/>
<path style="fill:#a2a09e; stroke:none;" d="M793 113L794 114L793 113M806 113L807 114L806 113z"/>
<path style="fill:#ecae5f; stroke:none;" d="M811 113L812 114L811 113z"/>
<path style="fill:#a2a09e; stroke:none;" d="M968 113L969 114L968 113M983 113L984 114L983 113z"/>
<path style="fill:#ecae5f; stroke:none;" d="M1041 113L1042 114L1041 113z"/>
<path style="fill:#a2a09e; stroke:none;" d="M1042.67 113.333L1043.33 113.667L1042.67 113.333M1057 113L1058 114L1057 113M215 114L215 123L216 123L215 114M243 114L243 115L246 115L243 114M254.667 114.333L255.333 114.667L254.667 114.333M422 114L422 121L423 121L422 114z"/>
<path style="fill:#ecae5f; stroke:none;" d="M433 114L434 115L433 114z"/>
<path style="fill:#a2a09e; stroke:none;" d="M438 114L439 115L438 114M442.333 114.667L442.667 115.333L442.333 114.667M511.333 114.667L511.667 115.333L511.333 114.667z"/>
<path style="fill:#ecae5f; stroke:none;" d="M515 114L516 115L515 114z"/>
<path style="fill:#a2a09e; stroke:none;" d="M521.333 114.667L521.667 115.333L521.333 114.667M692 114L693 115L692 114M697 114L697 115L700 115L697 114z"/>
<path style="fill:#ecae5f; stroke:none;" d="M700 114L701 115L700 114z"/>
<path style="fill:#a2a09e; stroke:none;" d="M811 114L812 115L811 114z"/>
<path style="fill:#ecae5f; stroke:none;" d="M969 114L970 115L969 114z"/>
<path style="fill:#a2a09e; stroke:none;" d="M970.667 114.333L971.333 114.667L970.667 114.333M980.667 114.333L981.333 114.667L980.667 114.333z"/>
<path style="fill:#ecae5f; stroke:none;" d="M982 114L983 115L982 114z"/>
<path style="fill:#a2a09e; stroke:none;" d="M1045 114L1045 115L1051 115L1045 114M1058 114L1059 115L1058 114z"/>
<path style="fill:#ecae5f; stroke:none;" d="M246 115L247 116L246 115z"/>
<path style="fill:#a2a09e; stroke:none;" d="M247 115L247 116L252 116L247 115z"/>
<path style="fill:#ecae5f; stroke:none;" d="M252 115L253 116L252 115M309 115L309 121L310 121L309 115z"/>
<path style="fill:#a2a09e; stroke:none;" d="M434 115L435 116L434 115M515 115L516 116L515 115M525 115L526 116L525 115z"/>
<path style="fill:#ecae5f; stroke:none;" d="M609 115L610 116L609 115z"/>
<path style="fill:#a2a09e; stroke:none;" d="M691 115L692 116L691 115M696 115L697 116L696 115M807 115L808 116L807 115M812 115L813 116L812 115z"/>
<path style="fill:#ecae5f; stroke:none;" d="M964 115L965 116L964 115z"/>
<path style="fill:#a2a09e; stroke:none;" d="M973 115L973 116L979 116L973 115z"/>
<path style="fill:#ecae5f; stroke:none;" d="M1052 115L1053 116L1052 115z"/>
<path style="fill:#a2a09e; stroke:none;" d="M1053.67 115.333L1054.33 115.667L1053.67 115.333M1059 115L1060 116L1059 115M147 116L147 123L148 123L147 116M234.333 116.667L234.667 117.333L234.333 116.667M259 116L260 117L259 116M418 116L418 120L419 120L418 116M445.333 116.667L445.667 117.333L445.333 116.667M609 116L609 119L610 119L609 116z"/>
<path style="fill:#ecae5f; stroke:none;" d="M613 116L614 117L613 116M631.333 116.667L631.667 117.333L631.333 116.667M690 116L691 117L690 116z"/>
<path style="fill:#a2a09e; stroke:none;" d="M808 116L809 117L808 116M813 116L814 117L813 116z"/>
<path style="fill:#ecae5f; stroke:none;" d="M887 116L888 117L887 116z"/>
<path style="fill:#a2a09e; stroke:none;" d="M964.333 116.667L964.667 117.333L964.333 116.667M985 116L986 117L985 116M1056 116L1057 117L1056 116M1060 116L1061 117L1060 116M260 117L261 118L260 117M440.667 117.333L441.333 117.667L440.667 117.333M512 117L513 118L512 117M516.333 117.667L516.667 118.333L516.333 117.667M520.333 117.667L520.667 118.333L520.333 117.667M524 117L525 118L524 117M553 117L553 120L554 120L553 117M574 117L574 120L575 120L574 117z"/>
<path style="fill:#ecae5f; stroke:none;" d="M635 117L636 118L635 117z"/>
<path style="fill:#a2a09e; stroke:none;" d="M690.333 117.667L690.667 118.333L690.333 117.667z"/>
<path style="fill:#ecae5f; stroke:none;" d="M694 117L695 118L694 117M710 117L711 118L710 117z"/>
<path style="fill:#a2a09e; stroke:none;" d="M809 117L810 118L809 117M887 117L888 118L887 117M907 117L908 118L907 117M910 117L910 121L911 121L910 117M984 117L985 118L984 117M987 117L987 121L988 121L987 117M1037 117L1038 118L1037 117M1039 117L1040 118L1039 117z"/>
<path style="fill:#ecae5f; stroke:none;" d="M234 118L235 119L234 118z"/>
<path style="fill:#a2a09e; stroke:none;" d="M238 118L239 119L238 118M257.333 118.667L257.667 119.333L257.333 118.667M323.333 118.667L323.667 119.333L323.333 118.667z"/>
<path style="fill:#ecae5f; stroke:none;" d="M347 118L348 119L347 118z"/>
<path style="fill:#a2a09e; stroke:none;" d="M436 118L437 119L436 118z"/>
<path style="fill:#ecae5f; stroke:none;" d="M524 118L525 119L524 118z"/>
<path style="fill:#a2a09e; stroke:none;" d="M587 118L588 119L587 118z"/>
<path style="fill:#ecae5f; stroke:none;" d="M591 118L592 119L591 118z"/>
<path style="fill:#a2a09e; stroke:none;" d="M612 118L612 121L613 121L612 118M635 118L635 122L636 122L635 118M693 118L693 122L694 122L693 118M710.333 118.667L710.667 119.333L710.333 118.667M814 118L815 119L814 118z"/>
<path style="fill:#ecae5f; stroke:none;" d="M1040 118L1041 119L1040 118z"/>
<path style="fill:#a2a09e; stroke:none;" d="M1057 118L1058 119L1057 118z"/>
<path style="fill:#ecae5f; stroke:none;" d="M327 119L328 120L327 119z"/>
<path style="fill:#a2a09e; stroke:none;" d="M347.333 119.667L347.667 120.333L347.333 119.667M437 119L438 120L437 119M444 119L444 122L445 122L444 119z"/>
<path style="fill:#ecae5f; stroke:none;" d="M519 119L520 120L519 119z"/>
<path style="fill:#a2a09e; stroke:none;" d="M550.333 119.667L550.667 120.333L550.333 119.667M591 119L592 120L591 119z"/>
<path style="fill:#ecae5f; stroke:none;" d="M810 119L811 120L810 119z"/>
<path style="fill:#a2a09e; stroke:none;" d="M815 119L816 120L815 119M884.333 119.667L884.667 120.333L884.333 119.667M961 119L962 120L961 119M965 119L966 120L965 119M1040 119L1040 122L1041 122L1040 119z"/>
<path style="fill:#ecae5f; stroke:none;" d="M1057 119L1058 120L1057 119M1061 119L1062 120L1061 119M11 120L11 128L12 128L11 120z"/>
<path style="fill:#a2a09e; stroke:none;" d="M235 120L236 121L235 120M239 120L240 121L239 120M327 120L328 121L327 120M350.333 120.667L350.667 121.333L350.333 120.667M368 120L369 121L368 120z"/>
<path style="fill:#ecae5f; stroke:none;" d="M418 120L419 121L418 120z"/>
<path style="fill:#a2a09e; stroke:none;" d="M513 120L514 121L513 120M517 120L518 123L519 123L520 120L519 120L517 120M523 120L524 121L523 120z"/>
<path style="fill:#ecae5f; stroke:none;" d="M554 120L555 121L554 120z"/>
<path style="fill:#a2a09e; stroke:none;" d="M573.333 120.667L573.667 121.333L573.333 120.667M577 120L578 121L577 120z"/>
<path style="fill:#ecae5f; stroke:none;" d="M608 120L609 121L608 120z"/>
<path style="fill:#a2a09e; stroke:none;" d="M690 120L690 124L691 124L690 120M811 120L812 121L811 120M816 120L817 121L816 120z"/>
<path style="fill:#ecae5f; stroke:none;" d="M839 120L839 123L840 123L839 120M862.333 120.667L862.667 121.333L862.333 120.667z"/>
<path style="fill:#a2a09e; stroke:none;" d="M888 120L889 121L888 120M906.333 120.667L906.667 121.333L906.333 120.667M983 120L984 121L983 120M1057.33 120.667L1057.67 121.333L1057.33 120.667M256 121L257 122L256 121M260 121L261 122L260 121z"/>
<path style="fill:#fefcf8; stroke:none;" d="M309 121L310 122L309 121z"/>
<path style="fill:#a2a09e; stroke:none;" d="M324 121L325 122L324 121M346 121L347 122L346 121z"/>
<path style="fill:#ecae5f; stroke:none;" d="M518 121L519 122L518 121z"/>
<path style="fill:#a2a09e; stroke:none;" d="M554 121L555 122L554 121M588 121L589 122L588 121M592 121L593 122L592 121M608 121L609 122L608 121M632.333 121.667L632.667 122.333L632.333 121.667M651 121L652 122L651 121M709 121L710 122L709 121M812 121L813 122L812 121z"/>
<path style="fill:#ecae5f; stroke:none;" d="M889 121L890 122L889 121z"/>
<path style="fill:#a2a09e; stroke:none;" d="M945.333 121.667L945.667 122.333L945.333 121.667M962 121L963 122L962 121M966 121L967 122L966 121M1037.33 121.667L1037.67 122.333L1037.33 121.667M236 122L237 123L236 122M240 122L241 123L240 122z"/>
<path style="fill:#ecae5f; stroke:none;" d="M260 122L261 123L260 122M309 122L310 123L309 122M324 122L325 123L324 122z"/>
<path style="fill:#a2a09e; stroke:none;" d="M328 122L329 123L328 122M349 122L350 123L349 122M368 122L369 123L368 122M419.333 122.667L419.667 123.333L419.333 122.667M423 122L424 123L423 122M439 122L440 123L439 122M445 122L446 123L445 122M514 122L515 123L514 122M522.333 122.667L522.667 123.333L522.333 122.667M551 122L552 123L551 122M555 122L556 123L555 122M572 122L573 123L572 122M576 122L577 123L576 122M607 122L608 123L607 122M611 122L612 123L611 122z"/>
<path style="fill:#ecae5f; stroke:none;" d="M708 122L709 123L708 122z"/>
<path style="fill:#a2a09e; stroke:none;" d="M817 122L818 123L817 122M885 122L886 123L885 122M905 122L906 123L905 122M909 122L910 123L909 122M967 122L968 123L967 122M982 122L983 123L982 122M986 122L987 123L986 122z"/>
<path style="fill:#ecae5f; stroke:none;" d="M1041 122L1042 123L1041 122z"/>
<path style="fill:#a2a09e; stroke:none;" d="M1060.33 122.667L1060.67 123.333L1060.33 122.667z"/>
<path style="fill:#ecae5f; stroke:none;" d="M147 123L148 124L147 123z"/>
<path style="fill:#a2a09e; stroke:none;" d="M237 123L238 124L237 123M241 123L242 124L241 123M255 123L256 124L255 123M259 123L260 124L259 123z"/>
<path style="fill:#fefcf8; stroke:none;" d="M309.333 123.667L309.667 124.333L309.333 123.667z"/>
<path style="fill:#a2a09e; stroke:none;" d="M325 123L326 124L325 123M329 123L330 124L329 123M345 123L346 124L345 123z"/>
<path style="fill:#ecae5f; stroke:none;" d="M349 123L350 124L349 123M424 123L425 124L424 123z"/>
<path style="fill:#a2a09e; stroke:none;" d="M438 123L439 124L438 123M446 123L447 124L446 123M552.333 123.667L552.667 124.333L552.333 123.667M556 123L557 124L556 123z"/>
<path style="fill:#ecae5f; stroke:none;" d="M571 123L572 124L571 123M589 123L590 124L589 123z"/>
<path style="fill:#a2a09e; stroke:none;" d="M593 123L594 124L593 123z"/>
<path style="fill:#ecae5f; stroke:none;" d="M606 123L607 124L606 123z"/>
<path style="fill:#a2a09e; stroke:none;" d="M636 123L637 124L636 123M650 123L651 124L650 123M656.333 123.667L656.667 124.333L656.333 123.667M694 123L695 124L694 123M708 123L709 124L708 123z"/>
<path style="fill:#ecae5f; stroke:none;" d="M813 123L814 124L813 123z"/>
<path style="fill:#a2a09e; stroke:none;" d="M818 123L819 124L818 123M886 123L887 124L886 123M890 123L891 124L890 123M904 123L905 124L904 123M963 123L964 124L963 123M968 123L969 124L968 123M981 123L982 124L981 123M1038 123L1039 124L1038 123M1056 123L1057 124L1056 123M147.333 124.667L147.667 125.333L147.333 124.667M175.333 124.667L175.667 125.333L175.333 124.667M238 124L239 125L238 124M243 124L244 125L243 124M253.667 124.333L254.333 124.667L253.667 124.333M258 124L259 125L258 124M330 124L331 125L330 124z"/>
<path style="fill:#ecae5f; stroke:none;" d="M343 124L344 125L343 124z"/>
<path style="fill:#a2a09e; stroke:none;" d="M344 124L345 125L344 124M348 124L349 125L348 124M420.333 124.667L420.667 125.333L420.333 124.667M424.667 124.333L425.333 124.667L424.667 124.333M437 124L438 125L437 124M448 124L449 125L448 124z"/>
<path style="fill:#ecae5f; stroke:none;" d="M499 124L500 125L499 124z"/>
<path style="fill:#a2a09e; stroke:none;" d="M515.333 124.667L515.667 125.333L515.333 124.667M557 124L558 125L557 124M570 124L571 125L570 124z"/>
<path style="fill:#ecae5f; stroke:none;" d="M575 124L576 125L575 124z"/>
<path style="fill:#a2a09e; stroke:none;" d="M590 124L591 125L590 124M595 124L596 125L595 124M605.667 124.333L606.333 124.667L605.667 124.333z"/>
<path style="fill:#ecae5f; stroke:none;" d="M610 124L611 125L610 124z"/>
<path style="fill:#a2a09e; stroke:none;" d="M633 124L634 125L633 124M637 124L638 125L637 124M648.667 124.333L649.333 124.667L648.667 124.333M695 124L696 125L695 124M706.667 124.333L707.333 124.667L706.667 124.333M814 124L815 125L814 124M819 124L820 125L819 124M862.333 124.667L862.667 125.333L862.333 124.667M892 124L893 125L892 124M903 124L904 125L903 124M908 124L909 125L908 124M964 124L965 125L964 124M969 124L970 125L969 124M980 124L981 125L980 124M985 124L986 125L985 124z"/>
<path style="fill:#ecae5f; stroke:none;" d="M1038 124L1039 125L1038 124z"/>
<path style="fill:#a2a09e; stroke:none;" d="M1043 124L1044 125L1043 124M1055 124L1056 125L1055 124z"/>
<path style="fill:#ecae5f; stroke:none;" d="M212 125L213 126L212 125z"/>
<path style="fill:#a2a09e; stroke:none;" d="M216 125L217 126L216 125M239 125L240 126L239 125M245.667 125.333L246.333 125.667L245.667 125.333z"/>
<path style="fill:#ecae5f; stroke:none;" d="M247 125L247 126L250 126L247 125z"/>
<path style="fill:#a2a09e; stroke:none;" d="M250 125L250 126L253 126L250 125M257 125L258 126L257 125M326 125L327 126L326 125M331.667 125.333L332.333 125.667L331.667 125.333M342 125L343 126L342 125M347 125L348 126L347 125z"/>
<path style="fill:#ecae5f; stroke:none;" d="M369 125L370 126L369 125z"/>
<path style="fill:#a2a09e; stroke:none;" d="M426 125L427 126L426 125M436 125L437 126L436 125M441 125L441 126L444 126L441 125M450 125L450 126L453 126L450 125M499 125L500 126L499 125M521 125L522 126L521 125M537 125L538 126L537 125M553 125L554 126L553 125M558.667 125.333L559.333 125.667L558.667 125.333z"/>
<path style="fill:#ecae5f; stroke:none;" d="M568 125L569 126L568 125z"/>
<path style="fill:#a2a09e; stroke:none;" d="M569 125L570 126L569 125M574 125L575 126L574 125M591 125L592 126L591 125M596 125L596 126L599 126L596 125z"/>
<path style="fill:#ecae5f; stroke:none;" d="M599.667 125.333L600.333 125.667L599.667 125.333z"/>
<path style="fill:#a2a09e; stroke:none;" d="M602 125L602 126L605 126L602 125M609 125L610 126L609 125M634 125L637 128L634 125M639.667 125.333L640.333 125.667L639.667 125.333M646.667 125.333L647.333 125.667L646.667 125.333M652 125L653 126L652 125M657 125L658 126L657 125M691 125L692 126L691 125M697.667 125.333L698.333 125.667L697.667 125.333z"/>
<path style="fill:#ecae5f; stroke:none;" d="M699 125L700 126L699 125M703 125L704 126L703 125z"/>
<path style="fill:#a2a09e; stroke:none;" d="M704.667 125.333L705.333 125.667L704.667 125.333M710 125L712 127L712 125L710 125z"/>
<path style="fill:#ecae5f; stroke:none;" d="M715 125L716 126L715 125z"/>
<path style="fill:#a2a09e; stroke:none;" d="M820 125L821 126L820 125M859.333 125.667L859.667 126.333L859.333 125.667z"/>
<path style="fill:#ecae5f; stroke:none;" d="M887 125L888 126L887 125z"/>
<path style="fill:#a2a09e; stroke:none;" d="M888 125L889 126L888 125M893 125L893 126L896 126L893 125M900 125L900 126L903 126L900 125M907 125L908 126L907 125M965 125L966 126L965 125M971 125L971 126L974 126L971 125z"/>
<path style="fill:#ecae5f; stroke:none;" d="M974 125L974 126L977 126L974 125z"/>
<path style="fill:#a2a09e; stroke:none;" d="M977.667 125.333L978.333 125.667L977.667 125.333M984 125L985 126L984 125M1039 125L1040 126L1039 125M1044.67 125.333L1045.33 125.667L1044.67 125.333z"/>
<path style="fill:#ecae5f; stroke:none;" d="M1052 125L1053 126L1052 125z"/>
<path style="fill:#a2a09e; stroke:none;" d="M1053.67 125.333L1054.33 125.667L1053.67 125.333M145 126L146 127L145 126M153 126L153 127L155 129L156 129L153 126z"/>
<path style="fill:#ecae5f; stroke:none;" d="M155 126L156 127L155 126z"/>
<path style="fill:#a2a09e; stroke:none;" d="M169 129L170 129L172 127C169.86 125.882 169.473 126.749 169 129M176 126L177 127L176 126M190.667 126.333L191.333 126.667L190.667 126.333M196.667 126.333L197.333 126.667L196.667 126.333M213 126L214 127L213 126M217 126L218 127L217 126z"/>
<path style="fill:#ecae5f; stroke:none;" d="M218 126L219 127L218 126z"/>
<path style="fill:#a2a09e; stroke:none;" d="M240 126L241 127L240 126M256 126L257 127L256 126M272.667 126.333L273.333 126.667L272.667 126.333M278.667 126.333L279.333 126.667L278.667 126.333z"/>
<path style="fill:#ecae5f; stroke:none;" d="M305 126L306 127L305 126M313 126L314 127L313 126z"/>
<path style="fill:#a2a09e; stroke:none;" d="M327.667 126.333L328.333 126.667L327.667 126.333M334 126L334 127L341 127L334 126M346 126L347 127L346 126M363.667 126.333L364.333 126.667L363.667 126.333M369.667 126.333L370.333 126.667L369.667 126.333M421 126L422 127L421 126M428 126L428 127L431 127L428 126z"/>
<path style="fill:#ecae5f; stroke:none;" d="M431 126L432 127L431 126z"/>
<path style="fill:#a2a09e; stroke:none;" d="M432 126L432 127L435 127L432 126M440 126L441 127L440 126M444 126L445 127L444 126M460 126L461 129L462 129L462 126L460 126M497.667 126.333L498.333 126.667L497.667 126.333M505 126L506 129L507 129L507 126L505 126z"/>
<path style="fill:#ecae5f; stroke:none;" d="M521 126L522 127L521 126z"/>
<path style="fill:#a2a09e; stroke:none;" d="M530 126L530 129L531 129L532 126L530 126M538 126L539 129L540 129L540 126L538 126M554 126L555 127L554 126M560 126L560 127L568 127L560 126M573 126L574 127L573 126M592 126L593 127L592 126M608 126L609 127L608 126z"/>
<path style="fill:#ecae5f; stroke:none;" d="M634 126L635 127L634 126z"/>
<path style="fill:#a2a09e; stroke:none;" d="M642 126L642 127L645 127L642 126M651 126L652 127L651 126M653 126L654 127L653 126M659 126L659 127L663 127L659 126M672.667 126.333L673.333 126.667L672.667 126.333M678 126L679 129L680 129L680 126L678 126M692 126L693 127L692 126M709 126L710 127L709 126M715.667 126.333L716.333 126.667L715.667 126.333M730.667 126.333L731.333 126.667L730.667 126.333M736.667 126.333L737.333 126.667L736.667 126.333M786 129L787 129L789 127C786.86 125.882 786.473 126.749 786 129M793 126L793 127L795 129L796 129L793 126M813.667 126.333L814.333 126.667L813.667 126.333M821 126L822 127L821 126z"/>
<path style="fill:#ecae5f; stroke:none;" d="M823 126L824 127L823 126z"/>
<path style="fill:#a2a09e; stroke:none;" d="M863.667 126.333L864.333 126.667L863.667 126.333M889 126L890 127L889 126M906 126L907 127L906 126M922 126L922 129L923 129L924 126L922 126M928.667 126.333L929.333 126.667L928.667 126.333M943.667 126.333L944.333 126.667L943.667 126.333M949.667 126.333L950.333 126.667L949.667 126.333M966.667 126.333L967.333 126.667L966.667 126.333M983 126L984 127L983 126M998 126L998 129L999 129L1000 126L998 126M1004.67 126.333L1005.33 126.667L1004.67 126.333M1019.67 126.333L1020.33 126.667L1019.67 126.333M1025.67 126.333L1026.33 126.667L1025.67 126.333M1040 126L1041 127L1040 126M1047 126L1047 127L1052 127L1047 126M1058 126L1059 127L1058 126M144 127L145 128L144 127M177.333 127.667L177.667 128.333L177.333 127.667M198 127L199 128L198 127z"/>
<path style="fill:#ecae5f; stroke:none;" d="M213 127L214 128L213 127z"/>
<path style="fill:#a2a09e; stroke:none;" d="M220 129L223 127L220 129M241.667 127.333L242.333 127.667L241.667 127.333M255 127L256 128L255 127z"/>
<path style="fill:#545454; stroke:none;" d="M306 127C308.1 129.403 310.9 129.403 313 127L306 127z"/>
<path style="fill:#a2a09e; stroke:none;" d="M329 127L330 128L329 127M345 127L346 128L345 127z"/>
<path style="fill:#ecae5f; stroke:none;" d="M371 127L372 128L371 127z"/>
<path style="fill:#a2a09e; stroke:none;" d="M422 127L423 128L422 127M439 127L440 128L439 127M445.667 127.333L446.333 127.667L445.667 127.333M516 127L517 128L516 127M520 127L521 128L520 127z"/>
<path style="fill:#ecae5f; stroke:none;" d="M555 127L556 128L555 127z"/>
<path style="fill:#a2a09e; stroke:none;" d="M556 127L557 128L556 127M571.667 127.333L572.333 127.667L571.667 127.333z"/>
<path style="fill:#ecae5f; stroke:none;" d="M593 127L594 128L593 127z"/>
<path style="fill:#a2a09e; stroke:none;" d="M594 127L595 128L594 127M606 127L607 128L606 127z"/>
<path style="fill:#ecae5f; stroke:none;" d="M607 127L608 128L607 127M635 127L636 128L635 127z"/>
<path style="fill:#a2a09e; stroke:none;" d="M649 127L650 128L649 127z"/>
<path style="fill:#ecae5f; stroke:none;" d="M650 127L651 128L650 127z"/>
<path style="fill:#a2a09e; stroke:none;" d="M654 127L655 128L654 127M671 127L672 128L671 127z"/>
<path style="fill:#ecae5f; stroke:none;" d="M693 127L694 128L693 127z"/>
<path style="fill:#a2a09e; stroke:none;" d="M694 127L695 128L694 127M707 127L708 128L707 127z"/>
<path style="fill:#ecae5f; stroke:none;" d="M708 127L709 128L708 127z"/>
<path style="fill:#a2a09e; stroke:none;" d="M712 127L713 128L712 127M720 127L721 128L720 127z"/>
<path style="fill:#ecae5f; stroke:none;" d="M721 127L722 128L721 127z"/>
<path style="fill:#a2a09e; stroke:none;" d="M823.333 127.667L823.667 128.333L823.333 127.667z"/>
<path style="fill:#545454; stroke:none;" d="M836 127L844 128L844 127L836 127z"/>
<path style="fill:#a2a09e; stroke:none;" d="M860 127L861 128L860 127M868 127L869 128L868 127M890.667 127.333L891.333 127.667L890.667 127.333M904 127L905 128L904 127z"/>
<path style="fill:#ecae5f; stroke:none;" d="M905 127L906 128L905 127z"/>
<path style="fill:#a2a09e; stroke:none;" d="M930 127L931 128L930 127M968 127L969 128L968 127M981 127L982 128L981 127M1006 127L1007 128L1006 127M1041 127L1042 128L1041 127M1056 127L1057 128L1056 127z"/>
<path style="fill:#ecae5f; stroke:none;" d="M47.3333 128.667L47.6667 129.333L47.3333 128.667M144 128L145 129L144 128z"/>
<path style="fill:#a2a09e; stroke:none;" d="M190 128L191 129L190 128M197 128L198 129L197 128z"/>
<path style="fill:#ecae5f; stroke:none;" d="M214 128L215 129L214 128z"/>
<path style="fill:#a2a09e; stroke:none;" d="M244 128L244 129L247 129L244 128M251.667 128.333L252.333 128.667L251.667 128.333z"/>
<path style="fill:#ecae5f; stroke:none;" d="M253 128L254 129L253 128z"/>
<path style="fill:#a2a09e; stroke:none;" d="M272 128L273 129L272 128z"/>
<path style="fill:#ecae5f; stroke:none;" d="M330 128L331 129L330 128z"/>
<path style="fill:#a2a09e; stroke:none;" d="M331 128L332 129L331 128M343 128L344 129L343 128M363 128L364 129L363 128M370 128L371 129L370 128M424 128L425 129L424 128M437 128L438 129L437 128M448 128L449 129L448 128M497 128L498 129L497 128M518 128L519 129L518 128z"/>
<path style="fill:#ecae5f; stroke:none;" d="M519 128L520 129L519 128z"/>
<path style="fill:#a2a09e; stroke:none;" d="M557.667 128.333L558.333 128.667L557.667 128.333M569.667 128.333L570.333 128.667L569.667 128.333M596.667 128.333L597.333 128.667L596.667 128.333M603.667 128.333L604.333 128.667L603.667 128.333z"/>
<path style="fill:#ecae5f; stroke:none;" d="M605 128L606 129L605 128z"/>
<path style="fill:#a2a09e; stroke:none;" d="M638.667 128.333L639.333 128.667L638.667 128.333M646.667 128.333L647.333 128.667L646.667 128.333M656 128L656 129L659 129L656 128M696.667 128.333L697.333 128.667L696.667 128.333M705 128L706 129L705 128M713 128L714 129L713 128M719 128L720 129L719 128M730 128L731 129L730 128M813 128L814 129L813 128M843 128L844 129L843 128M861 128L862 129L861 128M867 128L868 129L867 128M893.667 128.333L894.333 128.667L893.667 128.333M901.667 128.333L902.333 128.667L901.667 128.333z"/>
<path style="fill:#ecae5f; stroke:none;" d="M903 128L904 129L903 128z"/>
<path style="fill:#a2a09e; stroke:none;" d="M943 128L944 129L943 128M950 128L951 129L950 128z"/>
<path style="fill:#ecae5f; stroke:none;" d="M970 128L971 129L970 128z"/>
<path style="fill:#a2a09e; stroke:none;" d="M971.667 128.333L972.333 128.667L971.667 128.333M978.667 128.333L979.333 128.667L978.667 128.333M1019 128L1020 129L1019 128M1026 128L1027 129L1026 128M1043.67 128.333L1044.33 128.667L1043.67 128.333M1054 128L1055 129L1054 128z"/>
<path style="fill:#ecae5f; stroke:none;" d="M1055 128L1056 129L1055 128M148 129L149 130L148 129z"/>
<path style="fill:#a2a09e; stroke:none;" d="M149.667 129.333L150.333 129.667L149.667 129.333z"/>
<path style="fill:#ecae5f; stroke:none;" d="M151 129L152 130L151 129z"/>
<path style="fill:#a2a09e; stroke:none;" d="M333.667 129.333L334.333 129.667L333.667 129.333M339.667 129.333L340.333 129.667L339.667 129.333z"/>
<path style="fill:#ecae5f; stroke:none;" d="M341 129L342 130L341 129z"/>
<path style="fill:#a2a09e; stroke:none;" d="M426 129L427 130L426 129M434.667 129.333L435.333 129.667L434.667 129.333z"/>
<path style="fill:#ecae5f; stroke:none;" d="M451 129L452 130L451 129z"/>
<path style="fill:#a2a09e; stroke:none;" d="M452 129L452 130L461 130L452 129M560.667 129.333L561.333 129.667L560.667 129.333M566.667 129.333L567.333 129.667L566.667 129.333M1047 129L1047 130L1051 130L1047 129z"/>
<path style="fill:#ecae5f; stroke:none;" d="M1051 129L1052 130L1051 129M48.3333 136.667L48.6667 137.333L48.3333 136.667M49 138L49 139L72 140L114 139L114 138C94.9565 141.535 68.0435 141.535 49 138z"/>
</svg>
